<svg id="Layer_1" data-name="Layer 1" xmlns="http://www.w3.org/2000/svg" viewBox="0 0 1500 1000"><defs><style>.cls-1,.cls-15{fill:#db161b;}.cls-11,.cls-12,.cls-13,.cls-14,.cls-16,.cls-2,.cls-4,.cls-5,.cls-6,.cls-7,.cls-8,.cls-9{fill:#fff;}.cls-3{fill:green;}.cls-10,.cls-11,.cls-12,.cls-13,.cls-14,.cls-15,.cls-16,.cls-4,.cls-5,.cls-6,.cls-7,.cls-8,.cls-9{stroke:#db161b;}.cls-4{stroke-width:0.38px;}.cls-11,.cls-12,.cls-13,.cls-4,.cls-5,.cls-6,.cls-8,.cls-9{fill-rule:evenodd;}.cls-5{stroke-width:0.35px;}.cls-6{stroke-width:0.22px;}.cls-15,.cls-7{stroke-width:1.33px;}.cls-8{stroke-width:0.56px;}.cls-10,.cls-16,.cls-9{stroke-width:0.33px;}.cls-10{fill:none;}.cls-11,.cls-14{stroke-width:0.45px;}.cls-12{stroke-width:0.39px;}.cls-13{stroke-width:0.45px;}</style></defs><path class="cls-1" d="M0,0H1500V1000H0Z"/><path class="cls-2" d="M375,0H1500V333.33H375Z"/><path class="cls-3" d="M375,666.67H1500V1000H375Z"/><g id="a"><path class="cls-4" d="M318.94,151.88H266.58a5.06,5.06,0,0,0-5.22,4.9v24.66a5.06,5.06,0,0,0,5.22,4.9h52.36a5.07,5.07,0,0,0,5.22-4.9V156.78A5.07,5.07,0,0,0,318.94,151.88Z"/><path class="cls-5" d="M317.59,153.31H267.92A4.73,4.73,0,0,0,263,157.8v22.61a4.73,4.73,0,0,0,4.95,4.49h49.67a4.74,4.74,0,0,0,5-4.49V157.8A4.74,4.74,0,0,0,317.59,153.31Z"/><path class="cls-6" d="M294.84,161.93l-3,.1-.13,1.37-2.46,1.25-1.92-1.56L285,164.34l2.18,1.36-.54,1.89-2.74-.1V170l2.19-.12,1.09,1.58-2.46,1.78,1.92,1.47,2.05-1.58,3,.63-.14,2.31,3.28.21.41-2.21,2.74-1.15,1.5,1.57,2.33-1.15-1.37-1.79,1.64-1.15h2.33l.14-3.25-2.33.21-1.64-1.88L302.5,164,300,162.34l-1.78,1.36-3-.4Z"/><ellipse class="cls-7" cx="293.93" cy="168.74" rx="3.3" ry="2.83"/><path class="cls-5" d="M314.5,154.76l4.83,4.3m-8.05-4.3,4.83,4.3m-8.05-4.3,4.83,4.3m-8.06-4.3,4.83,4.3m-8.05-4.3,4.83,4.3m-8.05-4.3,4.83,4.3m-8.05-4.3,4.83,4.3m-8.05-4.3,4.83,4.3m-8-4.3,4.83,4.3m-8.05-4.3,4.83,4.3m-8-4.3,4.83,4.3m-8.05-4.3,4.83,4.3m8.05-4.3,4.83,4.3m-20.93-4.3,4.83,4.3m-8.05-4.3,4.83,4.3m-8-4.3,4.83,4.3m-8.05-4.3,4.83,4.3m0-4.3-4.83,4.3m8.05-4.3-4.83,4.3m8-4.3-4.83,4.3m8.05-4.3-4.83,4.3m8-4.3-4.83,4.3m8.05-4.3-4.83,4.3m8-4.3-4.83,4.3m8.05-4.3-4.83,4.3m8-4.3-4.83,4.3m8.05-4.3-4.83,4.3m8.05-4.3-4.83,4.3m8.05-4.3-4.83,4.3m-8.05-4.3-4.83,4.3m20.93-4.3-4.83,4.3m8.06-4.3-4.83,4.3m8.05-4.3-4.83,4.3m8.05-4.3-4.83,4.3m0,20.09,4.83,4.32m-8.05-4.32,4.83,4.32m-8.05-4.32,4.83,4.32m-8.06-4.32,4.83,4.32m-8.05-4.32,4.83,4.32m-8.05-4.32,4.83,4.32m-8.05-4.32,4.83,4.32M292,179.15l4.83,4.32m-8-4.32,4.83,4.32m-8.05-4.32,4.83,4.32m-8-4.32,4.83,4.32m-8.05-4.32,4.83,4.32m8.05-4.32,4.83,4.32m-20.93-4.32,4.83,4.32m-8.05-4.32,4.83,4.32m-8-4.32,4.83,4.32m-8.05-4.32,4.83,4.32m0-4.32-4.83,4.32m8.05-4.32-4.83,4.32m8-4.32-4.83,4.32m8.05-4.32-4.83,4.32m8-4.32-4.83,4.32m8.05-4.32-4.83,4.32m8-4.32-4.83,4.32m8.05-4.32-4.83,4.32m8-4.32L292,183.47m8.05-4.32-4.83,4.32m8.05-4.32-4.83,4.32m8.05-4.32-4.83,4.32m-8.05-4.32-4.83,4.32m20.93-4.32-4.83,4.32m8.06-4.32-4.83,4.32m8.05-4.32-4.83,4.32m8.05-4.32-4.83,4.32"/></g><g id="b"><path class="cls-8" d="M149.35,224.12c-78.14,76.41-111.47,86.07-95.83,92.23s66-33.28,118.32-85.67,84.42-99,68.78-105.15S232.45,142.84,149.35,224.12Z"/><path class="cls-9" d="M83.57,279.65l27.37,7.17C85.18,311.23,56.2,321.29,48.15,317s14.49-14.35,35.42-37.33Z"/><path class="cls-9" d="M83.57,282.52l22.55,5.75C81,311.74,56.2,318.41,49.78,315.55S63.18,304.61,83.57,282.52Z"/><path class="cls-10" d="M167.67,220.77c-.06.38-.24,2-.41,2.67a15.25,15.25,0,0,1-.19,2.3c-.26.62-.21,1.19-1,1.42a3.07,3.07,0,0,1-1.59,1.25,9.13,9.13,0,0,1-2,1.05,4.14,4.14,0,0,1-2.39.18c-.71-.44-1.22-.88-1.8-1.23-.15-.57-.26-1.4-.41-1.95a8.61,8.61,0,0,1,.41,2.29,4.06,4.06,0,0,1-.8,1.95m2.79,2-.19-.18c.47.42.28.22-.81-.34a9.47,9.47,0,0,0-2.6-.72h-2.79a9.16,9.16,0,0,0-2.6.36c-.57.5-1.42.78-2,1.23a3.12,3.12,0,0,0-1.2,1.42c-.55.48-.91,1.23-1.41,1.6-.22.82-.69.78-1,1.42a3.15,3.15,0,0,1,2.2.69c.84.39-.7-.37-1-.69a4.78,4.78,0,0,0-1.81-.36c-.91-.26-1.46.21-2.4.36a2.36,2.36,0,0,1-1.4.35m8.2,3.72a8.58,8.58,0,0,1-3,0,2.91,2.91,0,0,1-1.8-1.25c-.25-.47,0,.86,0,1.43-.08,1-.44,1.06-1,1.77a20.81,20.81,0,0,1-1.81,1.06,6.31,6.31,0,0,1-1.8.89,7.72,7.72,0,0,0-1.8.88c-.67.42-.6.94-1,1.59a2.1,2.1,0,0,0,.79,1.79,5,5,0,0,0,1.21,1.59c.48.81,1,1.18-.22,1.41-.68.26-1.05.05-1.78,0m-.41,1.23c-.49-.09-2.24-.61-3-.87h-2.8a5.43,5.43,0,0,0-2.2.7,6,6,0,0,1-1.81,1.25,12.76,12.76,0,0,0-1.59,1.94,6.46,6.46,0,0,0-.4,2.31,18.33,18.33,0,0,0,.4,2.13,5.37,5.37,0,0,0,1.2,2.11.46.46,0,0,0,.39.36m.28,2.32c-.08,0-.28.45-.57.84a1.66,1.66,0,0,1-1.7.7c-.88,0-.8-.34-1.42-.57a14.64,14.64,0,0,1-1-1.39,12.64,12.64,0,0,0-.71-1.25c-.26-.43-.59-.73-.86-1.12a2,2,0,0,0-.7-.28c.81.13.87.41,1.41.83.24.4.5.81.72,1.26a11.48,11.48,0,0,1,.27,1.82,4.55,4.55,0,0,1-.27,1.95,6.24,6.24,0,0,1-1,1,7,7,0,0,0-1,1.11c-.44.27-.77.5-1.27.84a3.6,3.6,0,0,1-1.56.57,3.84,3.84,0,0,1-1.7-.57c-.54-.39-1-.63-1.43-1a4.56,4.56,0,0,1-1-1.12,1.69,1.69,0,0,0-1.71.27,3.69,3.69,0,0,0-1,1c-.24.11-.62.45-.86.57m1.69.32c.23.1,1,.67,1.41.88a10.64,10.64,0,0,1,.7,1.91,9.88,9.88,0,0,1,.18,2.46,11.59,11.59,0,0,1-.88,2.25,14.59,14.59,0,0,1-1.59,1.06,15.32,15.32,0,0,1-2.29.18,3.52,3.52,0,0,1-2.13,0,6.42,6.42,0,0,1-1.94-.7c-.65-.37-1.05-.71-1.76-1.06-.35-.5-.89-1-1.41-1.57a7.54,7.54,0,0,1-1.06-1.56c.26.75.65,1.4.88,2.09a4,4,0,0,1,.71,1.92,8.14,8.14,0,0,1,.17,2.44,8.94,8.94,0,0,1-.35,2.09v.54m-16.75,2.78v.26c0-.69,0-.35.28,1a3.12,3.12,0,0,0,2.84.51c.92-.67.89-1.19,2.56-1.51a6.1,6.1,0,0,1,3.12,1,4.22,4.22,0,0,1,2.28,1.77c.35.86.54,1.45-.57,1.77a7.48,7.48,0,0,1-3.13,1c-1.31,0-2.26-.15-2.84.5-.9.83-.85,1.33-.85,2.78A18.25,18.25,0,0,0,88.7,299a5.45,5.45,0,0,1-2.55.5,28.88,28.88,0,0,1-.86-3c-.22-.91-.29-2.17-.85-2.79a7.16,7.16,0,0,0-2-1.77,3.52,3.52,0,0,0-1.7-1c1.11.51,1.27,1.06,1.42,2.28a5.2,5.2,0,0,1-2.84.76,2.75,2.75,0,0,1-2.56-1.27,13.08,13.08,0,0,1-.85,2.8c-.58.76-.83,1.54-1.42,2.51.25,1.24.79,1.29.85,2.8.37,1,.33,1.93,1.14,2.53.36.39.63.47,1.42.5a6.84,6.84,0,0,1-3.69-.76c-.85-.45-1.48-1-2.28-1.51A11.51,11.51,0,0,0,68.53,300c-1.31,0-2.25-.13-2.84.51a4.47,4.47,0,0,0-1.7,2.53c-.26,1.32-.36,2.19.28,3a2.17,2.17,0,0,1,0,2.53c-.66.83-1.64.93-3.12,1.27a10.6,10.6,0,0,1-2.84-.51"/><path class="cls-11" d="M238.51,155.16C273.19,95.3,296.2,44.37,289.86,41.46s-39.57,43.3-74.25,103.15Z"/><path class="cls-12" d="M236.22,154.11c33.44-57.75,56.49-106.5,51.44-108.83s-36.3,42.65-69.76,100.39"/><path class="cls-13" d="M230.47,124c-4.07,6.75-8.38,14.47-12.57,21.69l18.32,8.44c4.18-7.23,8.74-14.83,12.56-21.7Z"/><path class="cls-13" d="M232,126.31c-4.06,6.75-6.91,11.92-11.08,19.13l13.72,6.33c4.19-7.22,7.28-12.27,11.09-19.13Z"/><path class="cls-14" d="M242,134.13l-9.16-4.22-8.13,14,9.16,4.22Z"/><path class="cls-13" d="M242,134.13,224.71,144m9.14,4.21-1-18.24M283.37,62.7l-9.16-4.22"/><ellipse class="cls-15" cx="282.79" cy="53.82" rx="2.66" ry="2.34" transform="translate(-4.81 66.05) rotate(-13.21)"/></g><g id="b-2" data-name="b"><path class="cls-8" d="M225.65,224.12c78.14,76.41,111.47,86.07,95.83,92.23s-66-33.28-118.32-85.67-84.42-99-68.78-105.15S142.55,142.84,225.65,224.12Z"/><path class="cls-9" d="M291.43,279.65l-27.37,7.17c25.76,24.41,54.74,34.47,62.79,30.16s-14.49-14.35-35.42-37.33Z"/><path class="cls-9" d="M291.43,282.52l-22.55,5.75c25.1,23.47,49.92,30.14,56.34,27.28S311.82,304.61,291.43,282.52Z"/><path class="cls-10" d="M207.33,220.77c.06.38.24,2,.41,2.67a15.25,15.25,0,0,0,.19,2.3c.26.62.21,1.19,1,1.42a3.07,3.07,0,0,0,1.59,1.25,9.13,9.13,0,0,0,2,1.05,4.14,4.14,0,0,0,2.39.18c.71-.44,1.22-.88,1.8-1.23.15-.57.26-1.4.41-1.95a8.61,8.61,0,0,0-.41,2.29,4.06,4.06,0,0,0,.8,1.95m-2.79,2,.19-.18c-.47.42-.28.22.81-.34a9.47,9.47,0,0,1,2.6-.72h2.79a9.16,9.16,0,0,1,2.6.36c.57.5,1.42.78,2,1.23a3.12,3.12,0,0,1,1.2,1.42c.55.48.91,1.23,1.41,1.6.22.82.69.78,1,1.42a3.15,3.15,0,0,0-2.2.69c-.84.39.7-.37,1-.69a4.78,4.78,0,0,1,1.81-.36c.91-.26,1.46.21,2.4.36a2.36,2.36,0,0,0,1.4.35m-8.2,3.72a8.58,8.58,0,0,0,3,0,2.91,2.91,0,0,0,1.8-1.25c.25-.47,0,.86,0,1.43.08,1,.44,1.06,1,1.77a20.81,20.81,0,0,0,1.81,1.06,6.31,6.31,0,0,0,1.8.89,7.72,7.72,0,0,1,1.8.88c.67.42.6.94,1,1.59a2.1,2.1,0,0,1-.79,1.79,5,5,0,0,1-1.21,1.59c-.48.81-1,1.18.22,1.41.68.26,1.05.05,1.78,0m.41,1.23c.49-.09,2.24-.61,3-.87h2.8a5.43,5.43,0,0,1,2.2.7A6,6,0,0,0,248,255a12.76,12.76,0,0,1,1.59,1.94,6.46,6.46,0,0,1,.4,2.31,18.33,18.33,0,0,1-.4,2.13,5.37,5.37,0,0,1-1.2,2.11.46.46,0,0,1-.39.36m-.28,2.32c.08,0,.28.45.57.84a1.66,1.66,0,0,0,1.7.7c.88,0,.8-.34,1.42-.57a14.64,14.64,0,0,0,1-1.39,12.64,12.64,0,0,1,.71-1.25c.26-.43.59-.73.86-1.12a2,2,0,0,1,.7-.28c-.81.13-.87.41-1.41.83-.24.4-.5.81-.72,1.26a11.48,11.48,0,0,0-.27,1.82,4.55,4.55,0,0,0,.27,1.95,6.24,6.24,0,0,0,1,1,7,7,0,0,1,1,1.11c.44.27.77.5,1.27.84a3.6,3.6,0,0,0,1.56.57,3.84,3.84,0,0,0,1.7-.57c.54-.39,1-.63,1.43-1a4.56,4.56,0,0,0,1-1.12,1.69,1.69,0,0,1,1.71.27,3.69,3.69,0,0,1,1,1c.24.11.62.45.86.57m-1.69.32c-.23.1-1,.67-1.41.88a10.64,10.64,0,0,0-.7,1.91,9.88,9.88,0,0,0-.18,2.46,11.59,11.59,0,0,0,.88,2.25,14.59,14.59,0,0,0,1.59,1.06,15.32,15.32,0,0,0,2.29.18,3.52,3.52,0,0,0,2.13,0,6.42,6.42,0,0,0,1.94-.7c.65-.37,1-.71,1.76-1.06.35-.5.89-1,1.41-1.57a7.54,7.54,0,0,0,1.06-1.56c-.26.75-.65,1.4-.88,2.09a4,4,0,0,0-.71,1.92,8.14,8.14,0,0,0-.17,2.44,8.94,8.94,0,0,0,.35,2.09v.54m16.75,2.78v.26c0-.69,0-.35-.28,1a3.12,3.12,0,0,1-2.84.51c-.92-.67-.89-1.19-2.56-1.51a6.1,6.1,0,0,0-3.12,1,4.22,4.22,0,0,0-2.28,1.77c-.35.86-.54,1.45.57,1.77a7.48,7.48,0,0,0,3.13,1c1.31,0,2.26-.15,2.84.5.9.83.85,1.33.85,2.78a18.25,18.25,0,0,1,.57,2.29,5.45,5.45,0,0,0,2.55.5,28.88,28.88,0,0,0,.86-3c.22-.91.29-2.17.85-2.79a7.16,7.16,0,0,1,2-1.77,3.52,3.52,0,0,1,1.7-1c-1.11.51-1.27,1.06-1.42,2.28a5.2,5.2,0,0,0,2.84.76,2.75,2.75,0,0,0,2.56-1.27,13.08,13.08,0,0,0,.85,2.8c.58.76.83,1.54,1.42,2.51-.25,1.24-.79,1.29-.85,2.8-.37,1-.33,1.93-1.14,2.53-.36.39-.63.47-1.42.5a6.84,6.84,0,0,0,3.69-.76c.85-.45,1.48-1,2.28-1.51a11.51,11.51,0,0,1,3.41-1.53c1.31,0,2.25-.13,2.84.51a4.47,4.47,0,0,1,1.7,2.53c.26,1.32.36,2.19-.28,3a2.17,2.17,0,0,0,0,2.53c.66.83,1.64.93,3.12,1.27a10.6,10.6,0,0,0,2.84-.51"/><path class="cls-11" d="M136.49,155.16C101.81,95.3,78.8,44.37,85.14,41.46s39.57,43.3,74.25,103.15Z"/><path class="cls-12" d="M138.78,154.11C105.34,96.36,82.29,47.61,87.34,45.28s36.3,42.65,69.76,100.39"/><path class="cls-13" d="M144.53,124c4.07,6.75,8.38,14.47,12.57,21.69l-18.32,8.44c-4.18-7.23-8.74-14.83-12.56-21.7Z"/><path class="cls-13" d="M143,126.31c4.06,6.75,6.91,11.92,11.08,19.13l-13.72,6.33c-4.19-7.22-7.28-12.27-11.09-19.13Z"/><path class="cls-14" d="M133,134.13l9.16-4.22,8.13,14-9.16,4.22Z"/><path class="cls-13" d="M133,134.13,150.29,144m-9.14,4.21,1-18.24M91.63,62.7l9.16-4.22"/><ellipse class="cls-15" cx="92.21" cy="53.82" rx="2.34" ry="2.66" transform="translate(18.74 131.28) rotate(-76.79)"/></g><path class="cls-9" d="M135.38,156.54c-4.82,0-8.68,3-8.68,6.71v7.44c0,3.72,3.86,6.7,8.68,6.7s8.69-3,8.69-6.7v-7.44C144.07,159.53,140.21,156.54,135.38,156.54Zm0-3.21c-8,0-14.48,3.75-14.48,8.39v10.51c0,4.65,6.46,8.38,14.48,8.38s14.49-3.73,14.49-8.38V161.72C149.87,157.08,143.41,153.33,135.38,153.33ZM240.05,158c-4.82,0-8.7,3-8.7,6.72v7.44c0,3.72,3.88,6.71,8.7,6.71s8.69-3,8.69-6.71v-7.44C248.74,161,244.86,158,240.05,158Zm0-3.2c-8,0-14.5,3.74-14.5,8.38v10.51c0,4.64,6.47,8.38,14.5,8.38s14.49-3.74,14.49-8.38V163.15c0-4.64-6.46-8.38-14.49-8.38Z"/><path class="cls-16" d="M213.72,163.38H231c.58,0,1.05.68,1.05,1.52v5.57c0,.84-.47,1.52-1.05,1.52H213.72c-.58,0-1.05-.68-1.05-1.52V164.9C212.67,164.06,213.14,163.38,213.72,163.38Z"/><path class="cls-16" d="M247.62,162h18.66c.63,0,1.14,1.14,1.14,2.54v9.28c0,1.4-.51,2.54-1.14,2.54H247.62c-.63,0-1.13-1.14-1.13-2.54v-9.28C246.49,163.09,247,162,247.62,162Z"/>
<text x="50" y="50" fill="gold" font-family="Verdana" font-size="60"> 阿曼 </text>
</svg>