<svg id="Layer_1" data-name="Layer 1" xmlns="http://www.w3.org/2000/svg" xmlns:xlink="http://www.w3.org/1999/xlink" viewBox="0 0 1500 1000"><defs><style>.cls-1{fill:none;}.cls-2{clip-path:url(#clip-path);}.cls-3{fill:#04733b;}.cls-4{fill:#fff;}.cls-5{fill:#ec2024;}.cls-6{fill:#7c7c7c;}</style><clipPath id="clip-path"><rect class="cls-1" width="1500" height="1000"/></clipPath></defs><g class="cls-2"><rect class="cls-3" x="-80.98" y="0.56" width="1661.95" height="332.96"/><rect class="cls-4" x="-80.98" y="333.52" width="1661.95" height="332.96"/><rect x="-80.98" y="666.48" width="1661.95" height="332.96"/><rect class="cls-5" x="-80.98" y="0.56" width="415.49" height="998.89"/></g><polygon class="cls-4" points="1050.69 519.3 1054.39 519.8 1059.99 520.2 1062.09 520.9 1065.69 522.9 1071.89 525.5 1078.79 526.2 1085.49 524.9 1091.19 521.2 1089.59 519.8 1091.79 515.5 1094.19 516.2 1095.89 519.1 1095.39 521.2 1101.59 523.7 1108.99 524 1115.29 521.8 1118.19 516.6 1116.09 510.1 1111.79 508.4 1110.29 507.8 1103.19 506.3 1102.39 505.8 1097.09 502.5 1097.09 502.5 1096.09 501.4 1093.99 497.9 1094.89 496.8 1095.09 496.1 1093.99 493.3 1092.19 495.7 1089.89 497 1084.19 499.5 1079.29 503.5 1077.89 504.2 1076.29 503.8 1073.29 502.5 1071.39 502.5 1068.89 503.3 1067.99 503.5 1065.39 505.3 1061.49 508.8 1059.29 509.9 1054.19 511.8 1051.49 513.5 1048.29 516.7 1048.39 518.5 1050.69 519.3"/><polygon class="cls-4" points="1165.39 485.1 1167.99 486.9 1171.49 491.1 1172.79 491.8 1175.09 491.9 1176.79 491.4 1178.79 490.4 1180.69 488.8 1182.19 486.9 1177.49 481.5 1175.49 478.3 1173.69 474.5 1170.69 474.4 1167.69 475.3 1165.29 477.1 1163.69 479.1 1162.69 482.7 1163.39 484.2 1165.39 485.1"/><polygon class="cls-4" points="1153.29 496.6 1158.49 498.1 1162.99 500.1 1164.99 504.2 1166.69 498.3 1166.69 498.3 1164.49 492.7 1161.89 489.8 1156.69 483.9 1154.89 482.4 1153.89 481.5 1149.39 483.4 1146.49 488.1 1148.79 494 1153.29 496.6"/><polygon class="cls-3" points="1172.49 278.6 1175.19 279.9 1173.39 271.9 1169.19 270.6 1166.49 274.6 1169.89 278.6 1172.49 278.6"/><polygon class="cls-4" points="1189.49 484.4 1192.89 482.7 1195.09 476.1 1194.99 473 1194.99 473 1192.99 471 1188.69 468 1185.99 468.3 1186.69 470.5 1189.69 472.7 1190.29 474 1189.99 475 1189.09 474.5 1187.09 473.3 1184.79 472.7 1183.29 472.9 1183.79 474.5 1189.49 484.4"/><polygon class="cls-4" points="957.39 493.1 958.09 492.8 962.49 491.9 965.39 492.4 973.29 493.6 975.39 490.2 979.19 492.2 982.19 492.5 985.09 496.1 986.89 492.7 986.89 490.2 989.89 488 994.79 487.3 998.69 484.8 1006.79 481 1009.49 478.2 1010.79 469.4 1005.99 466.7 1005.69 465.5 1004.79 463.2 1004.59 461.9 1000.89 464.5 993.09 476 994.39 478.3 994.59 480.7 994.19 483.2 992.39 484.1 990.29 483 988.29 479.4 986.49 479.4 982.69 481.2 975.79 483.9 974.69 484.7 973.59 485.7 968.29 488.1 966.19 488.6 958.49 486.9 957.79 487.5 957.09 488.9 956.39 490.5 956.29 491.9 956.79 493.1 957.39 493.1"/><polygon class="cls-4" points="1214.69 459.1 1220.19 460.1 1222.99 459.1 1222.99 459.1 1222.79 456.5 1219.09 452.7 1211.39 448.7 1207.69 445.8 1206.19 441.6 1207.59 436.8 1206.19 436.8 1203.29 441.2 1194.89 449.1 1194.89 452.7 1204.79 455.8 1214.69 459.1"/><polygon class="cls-4" points="830.89 495.3 833.59 498.2 836.99 494.8 840.89 491.3 845.39 485.4 845.79 481.9 844.69 476 842.39 472.4 837.59 470.9 832.59 473.8 829.99 477.6 826.59 481.5 826.19 486 828.59 491.4 830.89 495.3"/><polygon class="cls-4" points="932.99 358.9 933.29 360 934.59 361.3 935.39 356.6 934.59 352.7 930.79 352.1 930.19 353.8 931.29 356.7 932.99 358.9"/><polygon class="cls-5" points="711.79 507.2 712.49 507.9 714.59 505.7 714.59 505.7 715.99 502.4 715.59 501.5 715.99 500.8 716.09 499.9 714.29 497.3 711.89 498.3 710.59 501.9 710.59 504.4 709.69 506 710.39 506.6 711.79 507.2"/><polygon class="cls-5" points="652.59 422 652.39 421.1 652.59 421.1 652.49 420.7 652.79 420.7 653.09 420.7 653.29 420.4 653.29 421.4 653.39 422.2 654.19 421.8 653.69 423.2 653.89 426.3 654.99 427.1 655.49 425.4 656.39 423.4 656.49 422.7 656.89 421.3 655.99 419.3 653.69 417.5 652.79 417.4 651.09 418.7 651.29 420.9 652.59 422"/><polygon class="cls-4" points="770.89 443.9 771.89 444.5 772.99 445.9 775.99 447.6 778.49 446.4 781.19 441.7 779.79 436.2 775.09 433 772.79 434.4 771.19 437.1 769.39 439.6 769.59 442.7 770.89 443.9"/><polygon class="cls-4" points="893.49 296.1 894.69 296.9 894.29 293.2 894.29 293.2 891.99 291.1 892.19 295.3 893.49 296.1"/><polygon class="cls-3" points="1368.09 282.2 1368.09 282 1367.79 281.9 1367.69 282 1367.69 282.2 1367.89 282.4 1368.09 282.4 1368.19 282.3 1368.09 282.2"/><polygon class="cls-3" points="1368.09 282.7 1367.99 282.6 1367.89 282.6 1367.79 282.8 1367.69 282.9 1367.79 283 1367.99 283 1368.09 282.8 1368.09 282.7"/><polygon class="cls-3" points="1368.89 282.4 1368.79 282.3 1368.69 282.2 1368.39 282.2 1368.29 282.4 1368.29 282.5 1368.49 282.6 1368.79 282.5 1368.89 282.4"/><polygon class="cls-3" points="1366.79 281.6 1366.69 281.6 1366.49 281.8 1366.39 281.9 1366.59 281.9 1366.79 281.7 1366.79 281.6"/><polygon class="cls-3" points="1366.89 278.3 1366.79 278.1 1366.59 278.1 1366.49 278.2 1366.69 278.4 1366.79 278.5 1366.89 278.3"/><polygon class="cls-3" points="1368.39 274 1368.29 273.9 1368.19 273.8 1368.09 273.8 1368.09 274 1368.09 274.3 1368.19 274.3 1368.39 274.2 1368.39 274"/><polygon class="cls-3" points="1371.09 272.3 1371.29 272.5 1371.39 272.6 1371.59 272.6 1371.59 272.5 1371.39 272.3 1371.19 272.3 1371.09 272.3"/><polygon class="cls-3" points="1371.39 271.9 1371.49 271.8 1371.49 271.6 1371.39 271.5 1371.19 271.5 1371.19 271.6 1371.19 271.8 1371.29 271.9 1371.39 271.9 1371.39 271.9"/><polygon class="cls-3" points="1368.89 271.7 1368.69 271.7 1368.59 271.8 1368.69 271.9 1368.89 271.8 1368.89 271.7"/><polygon class="cls-3" points="1368.09 274.9 1368.19 275 1368.39 275 1368.49 274.8 1368.39 274.7 1368.19 274.7 1368.09 274.8 1368.09 274.9"/><polygon class="cls-3" points="1369.29 272.6 1369.29 272.6 1369.09 272.3 1369.39 272 1369.49 271.9 1369.49 271.8 1369.29 271.7 1369.09 271.7 1368.79 272 1368.79 272.1 1369.19 272.6 1369.29 272.6"/><polygon class="cls-3" points="1362.39 277 1362.49 277.2 1362.69 277.1 1362.79 276.9 1362.79 276.8 1362.49 276.8 1362.39 277"/><polygon class="cls-3" points="1362.69 278.1 1362.59 278.2 1362.59 278.4 1362.59 278.5 1362.69 278.5 1362.69 278.5 1362.89 278.5 1362.89 278.3 1362.89 278.1 1362.79 278.1 1362.69 278.1"/><polygon class="cls-3" points="1370.59 278.1 1370.49 277.9 1370.19 277.9 1370.09 278 1370.09 278.2 1370.19 278.2 1370.49 278.2 1370.59 278.2 1370.59 278.1"/><polygon class="cls-3" points="1362.29 276.2 1362.29 276.4 1362.39 276.5 1362.49 276.5 1362.49 276.5 1362.59 276.4 1362.59 276.3 1362.59 276.1 1362.69 276.1 1362.69 276 1362.39 276 1362.29 276.2"/><polygon class="cls-3" points="1371.79 280.5 1371.89 280.5 1372.09 280.3 1372.09 280.2 1371.89 280.1 1371.89 279.7 1371.79 279.7 1371.69 279.8 1371.79 279.9 1371.79 280 1371.69 280.1 1371.69 280.3 1371.79 280.5"/><polygon class="cls-3" points="1362.79 277.2 1362.89 277.3 1362.99 277.2 1363.09 277 1362.99 276.9 1362.89 276.9 1362.79 277.2"/><polygon class="cls-3" points="1363.09 276.1 1362.99 276.3 1363.09 276.4 1363.29 276.4 1363.39 276.4 1363.39 276.2 1363.29 276.1 1363.09 276.1"/><polygon class="cls-3" points="1373.29 274.5 1373.09 274.6 1372.89 274.6 1372.69 274.7 1372.59 274.8 1372.59 275 1372.59 275.2 1372.69 275.2 1372.89 275.3 1372.89 275.2 1372.89 275 1372.79 274.8 1372.89 274.7 1373.19 274.7 1373.29 274.7 1373.59 274.3 1373.69 274.4 1373.69 274.5 1373.79 274.9 1374.59 274.8 1374.99 275 1375.19 275.2 1375.29 275.2 1375.29 275.1 1375.29 274.9 1375.19 274.7 1374.89 274.5 1374.69 274.4 1374.29 274.4 1374.09 274.3 1374.09 274.3 1373.99 274.2 1373.19 274.2 1372.89 274.3 1372.79 274.4 1372.89 274.4 1373.19 274.3 1373.39 274.3 1373.39 274.4 1373.29 274.5"/><polygon class="cls-3" points="1373.49 275.9 1373.49 275.8 1373.29 275.8 1373.29 275.9 1373.29 276.3 1373.09 276.5 1373.09 276.7 1373.39 276.6 1373.59 276.7 1373.69 276.6 1373.49 276.4 1373.69 275.9 1373.49 275.9"/><polygon class="cls-3" points="1374.09 272.2 1373.89 272.2 1373.49 272.2 1373.39 272.2 1373.39 272.3 1373.49 272.5 1373.79 272.8 1374.09 273.1 1374.19 273.1 1374.29 273 1373.99 272.8 1373.89 272.7 1373.89 272.5 1374.09 272.5 1374.39 272.7 1374.49 272.6 1374.49 272.5 1374.29 272.4 1374.29 272.4 1374.09 272.2"/><polygon class="cls-3" points="1371.49 279.7 1371.39 279.7 1371.29 279.9 1371.29 280 1371.39 280.1 1371.69 280.1 1371.69 280 1371.49 279.7"/><polygon class="cls-3" points="1372.49 276.1 1372.39 276.3 1372.39 276.4 1372.59 276.4 1372.69 276.1 1372.59 276 1372.49 276.1"/><polygon class="cls-3" points="1374.19 273.8 1373.99 273.9 1373.89 274 1374.19 273.9 1374.79 273.8 1374.99 273.9 1375.19 274.1 1375.39 274.3 1375.39 274.6 1375.49 274.7 1375.59 274.9 1375.69 274.9 1375.79 274.8 1375.59 274.5 1375.49 274.4 1375.49 274.2 1375.29 273.9 1375.19 273.9 1374.89 273.7 1374.69 273.7 1374.19 273.8"/><polygon class="cls-3" points="1370.09 277 1370.19 277.1 1370.29 277 1370.39 276.9 1370.49 277.1 1370.59 277.1 1370.59 277 1370.59 276.8 1370.59 276.8 1370.59 276.7 1370.39 276.7 1370.39 276.8 1370.29 276.8 1370.19 276.7 1370.09 276.7 1370.09 276.9 1369.99 276.9 1369.99 276.8 1369.89 276.7 1369.79 276.7 1369.69 276.9 1369.89 277 1370.09 277"/><polygon class="cls-3" points="1370.09 273.9 1370.09 273.7 1369.99 273.6 1369.69 273.8 1369.69 273.9 1369.89 273.9 1369.89 273.9 1370.09 273.9"/><polygon class="cls-3" points="1368.79 276.9 1368.99 277 1369.09 276.9 1369.09 276.8 1368.99 276.7 1368.79 276.8 1368.79 276.9"/><polygon class="cls-3" points="1371.19 276.3 1371.29 276.3 1371.29 276.2 1371.29 276.2 1371.29 275.9 1371.19 275.9 1370.99 276.1 1371.19 276.3"/><polygon class="cls-3" points="1369.09 278.4 1369.09 278.5 1369.19 278.7 1369.29 278.6 1369.19 278.4 1369.09 278.4"/><polygon class="cls-3" points="1368.89 275.4 1368.89 275.7 1369.09 275.7 1369.19 275.5 1369.09 275.4 1368.89 275.4"/><polygon class="cls-3" points="1369.19 277.9 1369.09 277.9 1368.99 278 1368.99 278.2 1369.09 278.2 1369.19 278.2 1369.29 278 1369.19 277.9"/><polygon class="cls-3" points="1370.89 274.7 1370.69 274.8 1370.69 274.9 1370.79 275.1 1371.09 275 1371.09 275 1371.19 274.7 1371.09 274.7 1370.89 274.7"/><polygon class="cls-3" points="1368.99 276 1368.99 276.2 1368.99 276.3 1369.19 276.3 1369.29 276.2 1369.29 276 1369.29 275.9 1369.09 275.9 1368.99 276"/><polygon class="cls-3" points="1369.99 276.4 1369.99 276.3 1369.99 276.2 1369.89 276.1 1369.59 276.2 1369.29 276.4 1369.39 276.5 1369.59 276.5 1369.79 276.4 1369.99 276.4"/><polygon class="cls-3" points="1369.69 274.8 1369.59 274.8 1369.49 274.8 1369.29 274.9 1369.29 275.1 1369.39 275.2 1369.59 275.1 1369.59 275.1 1369.79 274.9 1369.69 274.8"/><polygon class="cls-3" points="1369.49 275.6 1369.49 275.8 1369.59 275.9 1369.69 275.9 1369.79 275.8 1369.79 275.8 1369.79 275.6 1369.59 275.5 1369.49 275.6"/><polygon class="cls-3" points="1369.39 277.3 1369.39 277.2 1369.19 277.2 1369.19 277.4 1369.19 277.5 1369.39 277.5 1369.39 277.3"/><polygon class="cls-3" points="1369.59 276.8 1369.49 276.7 1369.39 276.7 1369.19 276.8 1369.29 277 1369.39 277 1369.59 277 1369.59 276.8"/><polygon class="cls-3" points="1368.99 277.4 1369.09 277.2 1368.99 277.1 1368.89 277.1 1368.89 277.4 1368.99 277.5 1368.99 277.4"/><polygon class="cls-3" points="1367.79 278 1367.69 277.9 1367.39 277.9 1367.39 278.2 1367.49 278.3 1367.79 278.3 1367.89 278.2 1367.79 278"/><polygon class="cls-3" points="1369.99 277.5 1370.09 277.5 1370.09 277.4 1369.89 277.3 1369.79 277.4 1369.79 277.5 1369.99 277.5"/><polygon class="cls-3" points="1369.69 279.6 1369.29 279.7 1369.19 279.8 1369.39 279.9 1369.59 279.9 1369.79 279.7 1369.69 279.6"/><polygon class="cls-3" points="1369.29 279.5 1369.39 279.4 1369.39 279.3 1369.39 279.1 1369.09 279.1 1368.99 279 1368.69 279.1 1368.69 279.3 1368.79 279.3 1368.89 279.3 1369.09 279.3 1369.09 279.5 1369.29 279.5"/><polygon class="cls-3" points="1363.99 276.4 1363.79 276.3 1363.59 276.3 1363.49 276.5 1363.39 276.6 1363.09 276.6 1362.99 276.7 1363.19 276.8 1363.49 276.6 1363.59 276.6 1363.89 276.8 1364.09 276.5 1364.09 276.5 1363.99 276.4"/><polygon class="cls-3" points="1371.69 276.7 1371.79 276.7 1371.79 276.5 1371.79 276.4 1371.59 276.3 1371.49 276.4 1371.49 276.5 1371.69 276.7"/><polygon class="cls-3" points="1369.79 277.2 1369.69 277.2 1369.59 277.3 1369.49 277.5 1369.59 277.6 1369.69 277.5 1369.79 277.4 1369.79 277.3 1369.79 277.2"/><polygon class="cls-3" points="1367.79 278.8 1367.89 278.6 1367.69 278.4 1367.39 278.5 1367.39 278.8 1367.59 278.9 1367.79 278.8"/><polygon class="cls-3" points="1371.09 275.4 1371.19 275.5 1371.39 275.5 1371.69 275.5 1371.69 275.4 1371.69 275.3 1371.39 275.3 1371.09 275.3 1371.09 275.4"/><polygon class="cls-3" points="1368.99 274 1368.99 274 1368.89 273.9 1368.69 273.8 1368.59 274 1368.69 274 1368.99 274.1 1369.69 274.5 1369.89 274.5 1370.19 274.4 1370.29 274.1 1370.29 273.9 1370.19 273.9 1369.99 274.3 1369.69 274.3 1369.49 274.2 1369.39 274.1 1369.29 274 1369.09 274 1368.99 274"/><polygon class="cls-3" points="1371.59 275.1 1371.69 275 1371.69 275 1371.69 274.8 1371.29 274.8 1371.39 275 1371.59 275.1"/><polygon class="cls-3" points="1370.29 278.3 1370.19 278.4 1370.19 278.5 1370.29 278.7 1370.49 278.8 1370.59 278.7 1370.49 278.4 1370.29 278.3"/><polygon class="cls-3" points="1367.39 277.2 1367.39 277 1367.29 276.9 1367.19 277 1367.19 277.4 1367.29 277.4 1367.39 277.3 1367.39 277.2"/><polygon class="cls-3" points="1369.09 273.5 1369.09 273.6 1369.19 273.6 1369.39 273.6 1369.49 273.4 1369.49 273.2 1369.19 273.2 1369.09 273.3 1369.09 273.5"/><polygon class="cls-3" points="1375.19 275.9 1375.29 276 1375.49 275.9 1375.59 275.7 1375.59 275.5 1375.49 275.5 1375.19 275.5 1375.09 275.4 1374.99 275.3 1374.89 275.3 1374.59 275.5 1374.49 275.5 1374.39 275.5 1374.19 275.4 1373.99 275.2 1373.89 275.2 1373.79 275.3 1373.69 275.2 1373.69 275.2 1373.69 275 1373.49 275 1373.39 275.2 1373.19 275.2 1373.09 275.3 1373.29 275.3 1373.29 275.4 1373.29 275.5 1373.39 275.6 1373.59 275.5 1373.99 275.6 1374.19 275.7 1374.19 275.9 1374.19 276 1373.99 276 1373.89 276.2 1373.89 276.6 1373.79 276.9 1373.89 276.9 1373.99 277 1374.09 277 1374.29 276.7 1374.29 275.9 1374.49 276 1374.69 275.9 1374.99 275.8 1375.19 275.6 1375.49 275.6 1375.49 275.7 1375.19 275.9"/><rect class="cls-3" x="1363.99" y="282.2" width="0.1" height="0.1"/><polygon class="cls-3" points="1364.49 279.9 1364.39 279.7 1364.29 279.7 1364.09 279.8 1363.99 280 1364.09 280 1364.19 279.9 1364.49 279.9"/><polygon class="cls-3" points="1364.09 281.4 1364.09 281.3 1364.09 281.2 1363.99 281.1 1363.89 281.1 1363.79 281.3 1363.99 281.5 1364.09 281.4 1364.09 281.4"/><polygon class="cls-3" points="1363.79 282.2 1363.79 281.9 1363.89 281.9 1363.99 281.7 1363.79 281.7 1363.59 282 1363.59 282.1 1363.59 282.2 1363.79 282.2 1363.79 282.2"/><polygon class="cls-3" points="1364.79 276.9 1364.49 276.8 1364.19 276.6 1364.09 276.7 1363.99 276.8 1364.09 276.9 1364.49 277.2 1364.59 277.3 1364.69 277.2 1364.69 277.2 1364.79 277.1 1364.99 277.1 1364.89 277 1364.79 276.9"/><polygon class="cls-3" points="1363.29 281.5 1363.29 281.6 1363.49 281.7 1363.59 281.6 1363.59 281.6 1363.49 281.4 1363.39 281.4 1363.29 281.5"/><polygon class="cls-3" points="1363.39 279.3 1363.39 279.6 1363.49 279.7 1363.59 279.7 1363.69 279.7 1363.69 279.7 1363.79 279.5 1363.89 279.4 1363.89 279.3 1363.79 279.3 1363.39 279.3"/><polygon class="cls-3" points="1364.39 278.3 1364.49 278.3 1364.39 278.1 1364.19 277.9 1364.09 277.9 1364.09 278.1 1364.19 278.2 1364.39 278.4 1364.39 278.3"/><polygon class="cls-3" points="1365.19 278.4 1365.19 278.4 1365.19 278.2 1365.09 277.9 1364.89 277.9 1364.79 278 1364.89 278.3 1365.09 278.4 1365.19 278.4"/><polygon class="cls-3" points="1364.69 280.5 1364.69 280.5 1364.79 280.3 1364.69 280.2 1364.39 280.2 1364.39 280.4 1364.49 280.5 1364.59 280.6 1364.69 280.5"/><polygon class="cls-3" points="1363.99 280.2 1363.79 280.3 1363.79 280.2 1363.69 280.1 1363.49 280.1 1363.49 280.2 1363.69 280.4 1363.79 280.5 1363.99 280.5 1364.09 280.3 1363.99 280.2"/><polygon class="cls-3" points="1364.49 281.9 1364.59 281.8 1364.59 281.7 1364.49 281.6 1364.39 281.6 1364.19 281.6 1364.09 281.7 1364.19 281.9 1364.49 281.9"/><polygon class="cls-3" points="1364.09 279.5 1364.09 279.6 1364.19 279.6 1364.29 279.5 1364.39 279.4 1364.29 279.4 1364.19 279.3 1364.09 279.5"/><polygon class="cls-3" points="1363.99 278.2 1363.99 278.4 1364.09 278.6 1364.09 278.6 1364.19 278.5 1364.19 278.3 1364.09 278.2 1363.99 278.2"/><polygon class="cls-3" points="1364.49 281.1 1364.39 281 1364.29 281.1 1364.29 281.2 1364.39 281.3 1364.49 281.3 1364.59 281.1 1364.49 281.1"/><polygon class="cls-3" points="1372.99 280.9 1373.19 280.4 1373.19 280.1 1373.29 279.9 1373.89 279.5 1374.09 279.1 1374.19 278.7 1374.39 278.4 1374.49 278.3 1374.69 278.3 1374.79 278.2 1374.69 278.1 1374.49 278 1374.19 278 1374.09 277.8 1373.89 277.8 1373.79 278.1 1373.79 278.3 1373.89 278.3 1374.09 278.1 1374.09 278.2 1373.89 278.7 1373.89 279 1373.79 279.2 1372.99 279.9 1372.89 280.2 1372.89 280.6 1372.79 280.9 1372.69 281.1 1372.69 281.5 1372.69 281.8 1372.89 282 1372.99 282.1 1373.09 282 1373.19 281.9 1372.99 281.7 1372.99 281.3 1372.99 280.9"/><polygon class="cls-3" points="1371.59 285 1371.89 284.8 1372.29 284.5 1372.49 284.4 1372.69 284.3 1372.79 284.2 1372.69 284 1372.59 284 1372.39 284.1 1372.29 284.3 1372.19 284.5 1371.79 284.7 1371.69 284.8 1371.39 284.8 1371.09 285 1370.49 285.4 1369.99 285.7 1369.69 285.7 1369.49 285.7 1368.99 286 1368.99 286.1 1369.19 286.1 1369.29 286.1 1369.59 286 1370.09 285.8 1370.09 285.8 1371.19 285.1 1371.59 285"/><polygon class="cls-6" points="1365.69 301.9 1365.59 301.8 1365.49 301.9 1365.59 302 1365.79 302 1365.89 301.9 1365.99 301.8 1366.09 301.1 1366.09 300.4 1365.99 299.5 1365.59 298.7 1365.09 297.9 1364.99 297.8 1364.69 298.1 1364.69 298.2 1364.89 298.4 1365.29 299 1365.49 299.5 1365.59 300 1365.59 300.6 1365.59 301.5 1365.59 301.6 1365.89 301.7 1365.89 301.8 1365.69 301.9"/><polygon class="cls-6" points="1365.79 303.5 1365.79 303.4 1365.89 303.3 1365.99 303.3 1366.09 303.4 1366.19 303 1366.19 302.9 1366.39 303 1366.39 302.9 1366.39 302.9 1366.49 302.7 1366.69 302.7 1366.89 302.5 1367.09 302.5 1367.09 302.4 1366.89 302.4 1366.69 302.2 1366.29 302.3 1366.19 302.6 1365.99 302.9 1365.49 303.5 1365.59 303.6 1365.79 303.5"/><polygon class="cls-3" points="1370.09 275 1370.09 275.1 1370.19 275.3 1370.39 275.3 1370.39 275.2 1370.39 275.1 1370.29 275 1370.09 275"/><polygon class="cls-3" points="1374.79 281.3 1375.29 280.6 1375.39 280.1 1375.39 279.7 1375.49 279.3 1375.99 278.3 1376.19 277.9 1376.29 277.2 1376.29 276.9 1376.19 276.9 1376.19 277.2 1376.09 277.9 1375.89 278.3 1375.49 279.2 1375.39 279.4 1375.29 279.7 1375.29 280.1 1375.19 280.5 1374.69 281.2 1374.29 281.9 1374.09 282.1 1373.89 282.5 1373.29 283.1 1373.99 282.6 1373.99 282.6 1374.39 282 1374.79 281.3"/><polygon class="cls-3" points="1365.39 280 1365.29 279.9 1365.29 279.9 1365.19 279.8 1364.89 279.8 1364.79 279.9 1365.09 280 1365.09 280.1 1365.29 280.2 1365.39 280"/><polygon class="cls-3" points="1365.69 282.8 1365.69 282.9 1366.09 282.9 1366.09 282.8 1365.99 282.7 1365.69 282.8"/><polygon class="cls-3" points="1365.79 281.3 1365.69 281.2 1365.79 281.1 1365.69 281 1365.59 280.9 1365.49 280.9 1365.49 281.1 1365.59 281.2 1365.49 281.3 1365.49 281.5 1365.49 281.6 1365.59 281.6 1365.79 281.5 1365.79 281.3"/><polygon class="cls-3" points="1364.89 280.5 1364.89 280.8 1364.99 280.9 1365.09 280.9 1365.09 280.5 1364.99 280.5 1364.89 280.5"/><polygon class="cls-3" points="1367.89 286.7 1368.29 286.5 1368.39 286.4 1368.59 286 1368.69 285.5 1368.69 285.2 1368.49 285.2 1368.49 285.4 1368.49 285.6 1368.49 285.9 1368.39 286.2 1368.19 286.4 1367.79 286.6 1367.29 286.7 1366.69 286.6 1365.39 286.7 1364.99 286.7 1364.69 286.7 1364.69 286.7 1364.19 286.6 1363.89 286.4 1362.89 286 1362.69 286 1362.49 285.8 1362.09 285.1 1361.89 284.6 1361.79 284.7 1362.09 285.2 1362.39 285.8 1362.69 286.1 1362.89 286.2 1363.79 286.5 1364.19 286.7 1364.69 286.8 1365.09 286.8 1365.49 286.8 1366.69 286.8 1367.29 286.8 1367.89 286.7"/><polygon class="cls-3" points="1361.29 283 1361.29 283.1 1361.29 283.2 1361.59 283.2 1361.79 283.3 1361.79 283.5 1361.89 283.8 1361.99 283.8 1362.09 283.7 1362.29 283.7 1362.49 283.7 1362.69 283.7 1362.89 283.6 1362.99 283.3 1362.89 283.1 1362.69 283.2 1362.49 283.3 1362.29 283.4 1362.09 283.3 1362.09 283.2 1361.99 283.1 1362.09 282.8 1362.29 282.8 1362.39 282.8 1362.49 282.7 1362.39 282.6 1362.29 282.4 1362.39 282.2 1362.69 281.9 1362.69 281.7 1362.89 281.6 1362.89 281.5 1362.69 281.5 1362.69 281.3 1362.59 281.2 1362.39 281.2 1362.09 280.9 1361.99 280.6 1361.99 280.4 1362.19 280.2 1362.29 279.9 1362.09 279.7 1361.99 279.4 1362.09 279.3 1362.39 279.3 1362.49 279.1 1362.29 279 1361.89 278.8 1361.69 278.6 1361.79 278.3 1361.99 278.2 1361.89 277.9 1362.09 277.8 1362.19 277.6 1362.09 277.5 1361.79 277.4 1361.59 277.4 1361.59 277.8 1361.49 278 1361.39 278.2 1361.29 278.5 1361.39 278.7 1361.49 279 1361.39 279.3 1361.29 279.5 1361.29 279.7 1361.59 280.2 1361.49 280.4 1361.39 280.9 1361.39 281.3 1361.29 281.7 1361.49 281.7 1361.59 281.6 1361.69 281.5 1361.89 281.7 1361.99 281.6 1361.79 281.3 1361.89 281.3 1362.09 281.3 1362.19 281.5 1362.19 281.7 1362.19 281.8 1361.89 282.1 1361.69 281.9 1361.59 281.9 1361.59 282.1 1361.69 282.2 1361.79 282.3 1361.79 282.6 1361.69 282.8 1361.59 282.8 1361.39 282.7 1361.29 282.8 1361.59 282.9 1361.59 283 1361.29 283"/><polygon class="cls-3" points="1363.69 280.8 1363.49 281 1363.59 281.2 1363.69 281.1 1363.69 281.1 1363.89 281 1363.99 280.8 1363.79 280.7 1363.69 280.8"/><polygon class="cls-3" points="1364.79 282.5 1364.69 282.4 1364.59 282.3 1364.59 282.3 1364.49 282.2 1364.39 282.2 1364.29 282.3 1364.29 282.4 1364.49 282.4 1364.59 282.5 1364.59 282.6 1364.79 282.7 1364.79 282.5"/><polygon class="cls-3" points="1373.89 270.7 1374.49 271.1 1374.89 271.5 1375.39 272 1375.59 272.4 1375.79 273.1 1375.99 273.8 1376.19 274.4 1376.29 275.2 1376.29 275.6 1376.09 276.4 1376.19 276.5 1376.19 276.5 1376.29 275.9 1376.39 275.3 1376.29 274.4 1376.09 273.7 1375.89 273.1 1375.69 272.4 1375.49 272 1374.99 271.4 1373.99 270.6 1373.89 270.7"/><polygon class="cls-3" points="1364.89 281.1 1364.89 281.1 1364.99 281.1 1364.99 281 1364.79 280.9 1364.69 280.9 1364.69 281.1 1364.79 281.1 1364.89 281.1"/><polygon class="cls-3" points="1363.29 282.1 1363.39 282 1363.29 281.8 1363.19 281.8 1362.99 281.9 1362.99 282 1363.09 282.1 1363.29 282.1"/><polygon class="cls-3" points="1364.99 281.7 1365.19 281.8 1365.29 281.9 1365.39 281.8 1365.39 281.8 1365.39 281.7 1365.29 281.6 1365.09 281.4 1364.79 281.4 1364.79 281.5 1364.79 281.6 1364.89 281.7 1364.99 281.7"/><polygon class="cls-3" points="1363.89 282.8 1363.99 282.7 1363.89 282.5 1363.69 282.5 1363.49 282.4 1363.39 282.4 1363.39 282.6 1363.49 282.7 1363.89 282.8"/><polygon class="cls-3" points="1363.29 281.2 1363.39 281 1363.29 280.8 1363.09 280.8 1362.99 280.9 1362.99 281.1 1362.99 281.3 1363.09 281.3 1363.29 281.2"/><polygon class="cls-3" points="1364.69 283.1 1364.69 282.9 1364.69 282.8 1364.49 282.8 1364.19 282.6 1364.09 282.6 1363.99 282.8 1364.49 283.1 1364.69 283.1"/><polygon class="cls-3" points="1365.19 278.5 1365.09 278.6 1365.09 278.9 1365.09 279 1365.29 279 1365.49 279 1365.39 278.6 1365.19 278.5"/><polygon class="cls-3" points="1365.49 280 1365.59 280.1 1365.79 280.3 1365.89 280.2 1365.89 280.2 1365.99 280.1 1365.89 280 1365.49 280"/><polygon class="cls-3" points="1365.09 277.3 1364.79 277.4 1364.79 277.6 1365.09 277.8 1365.19 277.8 1365.39 277.6 1365.19 277.4 1365.09 277.3"/><polygon class="cls-3" points="1365.79 280.7 1365.79 280.6 1365.69 280.5 1365.49 280.5 1365.49 280.6 1365.39 280.6 1365.39 280.7 1365.69 280.8 1365.79 280.7"/><polygon class="cls-3" points="1365.39 283.1 1365.49 282.9 1365.49 282.8 1365.39 282.8 1365.19 282.9 1365.09 282.9 1365.09 283.1 1365.29 283.1 1365.39 283.1"/><polygon class="cls-3" points="1365.19 282.5 1365.39 282.3 1365.29 282.1 1365.09 282 1364.89 282.1 1364.89 282.2 1364.99 282.3 1365.19 282.5"/><polygon class="cls-3" points="1362.89 279.4 1362.89 279.5 1363.09 279.5 1363.19 279.4 1363.19 279.3 1363.09 279.2 1362.89 279.3 1362.89 279.4"/><polygon class="cls-3" points="1364.19 277.5 1364.19 277.7 1364.29 277.7 1364.49 277.6 1364.49 277.5 1364.49 277.4 1364.29 277.4 1364.19 277.5"/><polygon class="cls-3" points="1363.89 277.1 1363.99 277.3 1364.19 277.4 1364.19 277.3 1364.19 277.2 1364.09 277.1 1363.89 277.1"/><polygon class="cls-3" points="1363.59 277.5 1363.59 277.6 1363.69 277.7 1363.79 277.7 1363.79 277.7 1363.99 277.7 1363.99 277.6 1363.99 277.4 1363.79 277.4 1363.59 277.5"/><polygon class="cls-3" points="1364.49 277.8 1364.39 277.9 1364.59 278 1364.69 277.9 1364.59 277.8 1364.49 277.8"/><polygon class="cls-3" points="1363.39 276.8 1363.39 277.2 1363.59 277.2 1363.59 277.2 1363.69 277.1 1363.69 276.9 1363.59 276.8 1363.39 276.8"/><polygon class="cls-3" points="1364.69 278.5 1364.59 278.5 1364.49 278.6 1364.49 278.7 1364.69 278.9 1364.89 278.9 1364.89 278.8 1364.79 278.6 1364.69 278.5"/><polygon class="cls-3" points="1363.19 280.6 1363.39 280.6 1363.39 280.6 1363.39 280.4 1363.19 280.2 1362.89 280.2 1362.89 280.3 1362.99 280.5 1363.19 280.6"/><polygon class="cls-3" points="1363.39 278.3 1363.49 278.3 1363.69 278.3 1363.69 278.3 1363.79 278.1 1363.79 277.9 1363.59 277.9 1363.39 278.1 1363.39 278.3"/><polygon class="cls-3" points="1362.79 279.7 1362.69 279.8 1362.89 280 1362.99 280.1 1363.09 280 1363.09 279.8 1362.89 279.6 1362.79 279.7"/><polygon class="cls-3" points="1362.99 278.7 1362.99 278.7 1363.09 278.6 1363.19 278.4 1363.19 278.3 1362.99 278.3 1362.99 278.7"/><polygon class="cls-3" points="1362.89 277.7 1362.89 277.9 1362.99 278 1363.09 277.9 1363.29 277.8 1363.29 277.6 1362.99 277.6 1362.89 277.7"/><polygon class="cls-3" points="1363.19 277.1 1363.09 277.1 1363.09 277.3 1363.19 277.3 1363.29 277.3 1363.39 277.3 1363.29 277.1 1363.19 277.1"/><polygon class="cls-3" points="1368.39 282 1368.39 282 1368.59 281.9 1368.49 281.8 1368.39 281.8 1368.29 281.8 1368.19 282 1368.29 282.1 1368.39 282"/><polygon class="cls-3" points="1369.09 283.9 1369.19 284 1369.39 284.1 1369.39 284 1369.39 283.8 1369.19 283.8 1369.09 283.9"/><polygon class="cls-3" points="1370.39 278.9 1370.19 278.8 1370.09 278.9 1369.99 279.2 1370.09 279.3 1370.19 279.2 1370.39 279.1 1370.39 278.9"/><polygon class="cls-3" points="1370.19 283.5 1370.29 283.3 1370.19 283.3 1369.99 283.3 1369.89 283.5 1369.89 283.6 1370.09 283.6 1370.19 283.5"/><polygon class="cls-3" points="1370.59 279.4 1370.79 279.4 1370.89 279.2 1370.69 279.1 1370.59 279.1 1370.49 279.1 1370.39 279.2 1370.49 279.4 1370.59 279.4"/><polygon class="cls-3" points="1370.09 283.9 1369.89 283.8 1369.79 283.8 1369.69 283.9 1369.79 283.9 1369.99 284 1370.09 283.9"/><polygon class="cls-3" points="1369.49 283.7 1369.59 283.6 1369.59 283.6 1369.59 283.4 1369.49 283.3 1369.29 283.4 1369.29 283.5 1369.39 283.7 1369.49 283.7"/><polygon class="cls-3" points="1369.99 284.2 1369.89 284.1 1369.79 284 1369.59 284 1369.59 284.2 1369.89 284.3 1369.99 284.2"/><polygon class="cls-3" points="1370.39 279.8 1369.89 279.7 1369.89 279.9 1369.99 279.9 1370.19 279.9 1370.39 279.9 1370.39 279.8"/><polygon class="cls-3" points="1370.69 284.8 1370.69 284.8 1370.69 284.4 1370.79 284 1371.09 283.9 1371.49 283.8 1371.49 283.7 1371.29 283.5 1370.89 283.3 1370.69 283.4 1370.59 283.6 1370.69 283.8 1370.49 284.1 1370.39 284.3 1370.39 284.6 1370.39 284.8 1370.49 284.8 1370.69 284.8"/><polygon class="cls-3" points="1372.39 277.3 1372.09 277.3 1372.09 277.4 1372.09 277.6 1372.19 277.7 1372.29 277.6 1372.29 277.6 1372.39 277.4 1372.39 277.3"/><polygon class="cls-3" points="1371.99 274.4 1371.99 274.5 1372.29 274.5 1372.39 274.5 1372.29 274.4 1371.99 274.3 1371.99 274.4"/><polygon class="cls-3" points="1372.19 274.1 1372.39 274.2 1372.49 274.2 1372.49 274.1 1372.49 274 1372.19 274 1372.19 274.1"/><polygon class="cls-3" points="1372.19 279 1372.19 279 1372.29 279 1372.39 278.9 1372.09 278.4 1371.89 278.4 1371.89 278.5 1371.89 278.7 1372.09 279 1372.19 279"/><polygon class="cls-3" points="1371.29 284.4 1371.49 284.4 1371.59 284.2 1371.49 284.1 1371.39 284 1371.09 284.1 1370.99 284.4 1371.19 284.5 1371.29 284.4"/><polygon class="cls-3" points="1369.19 280.3 1369.19 280.2 1369.19 280 1369.09 280 1368.89 280.1 1368.89 280.4 1368.99 280.4 1369.19 280.3"/><polygon class="cls-3" points="1367.19 275.9 1367.19 276 1366.99 276.2 1366.89 276.4 1366.99 276.6 1367.09 276.8 1367.29 276.8 1367.29 276.8 1367.39 276.7 1367.39 276.4 1367.39 276.2 1367.49 276.1 1367.59 276 1367.69 275.9 1367.69 275.8 1367.59 275.7 1367.39 275.6 1367.19 275.7 1367.19 275.9"/><polygon class="cls-3" points="1366.59 277.7 1366.59 277.8 1366.69 278 1366.99 278.1 1367.09 278.1 1367.09 278.1 1367.09 277.8 1367.09 277.7 1366.69 277.7 1366.59 277.7"/><polygon class="cls-3" points="1366.99 282.3 1367.09 282.2 1367.29 282 1367.29 281.9 1367.19 281.7 1367.09 281.8 1366.79 282 1366.89 282.2 1366.99 282.3"/><polygon class="cls-3" points="1369.19 282.8 1369.29 282.8 1369.29 282.8 1369.29 282.6 1369.09 282.5 1368.99 282.6 1369.09 282.8 1369.19 282.8"/><polygon class="cls-3" points="1367.39 274.7 1367.29 275 1367.19 275.3 1367.19 275.4 1367.49 275.4 1367.49 275.4 1367.59 275.4 1367.59 275.1 1367.69 275 1367.89 274.9 1367.89 274.7 1367.79 274.6 1367.49 274.6 1367.39 274.7"/><polygon class="cls-3" points="1367.59 274 1367.59 274.3 1367.59 274.4 1367.69 274.4 1367.89 274.4 1367.89 274.3 1367.99 273.8 1367.89 273.6 1367.79 273.6 1367.59 273.7 1367.59 274"/><polygon class="cls-3" points="1366.99 281.4 1366.99 281.5 1367.09 281.5 1367.19 281.4 1367.19 281.3 1367.09 281.3 1366.99 281.4"/><polygon class="cls-3" points="1368.79 281.2 1368.59 281 1368.49 281.1 1368.39 281.1 1368.49 281.3 1368.69 281.5 1368.79 281.5 1368.89 281.4 1368.79 281.2"/><polygon class="cls-3" points="1367.49 282.7 1367.59 282.6 1367.59 282.4 1367.49 282.4 1367.29 282.4 1367.19 282.6 1367.19 282.7 1367.19 282.8 1367.39 282.8 1367.49 282.7"/><polygon class="cls-3" points="1368.99 282.2 1368.99 282.3 1369.09 282.3 1369.19 282.2 1369.09 281.9 1368.99 281.8 1368.89 281.9 1368.99 282 1368.99 282.2"/><polygon class="cls-3" points="1371.99 272.6 1371.89 272.6 1371.79 272.6 1371.79 272.8 1371.89 272.9 1371.89 273.3 1371.99 273.3 1372.09 273.3 1372.19 273.1 1372.19 272.9 1372.09 272.8 1371.99 272.6"/><polygon class="cls-3" points="1367.69 273.1 1367.69 273.2 1367.69 273.3 1367.89 273.3 1367.99 273.3 1367.99 273.2 1367.89 273.1 1367.69 273.1"/><polygon class="cls-3" points="1367.59 281.9 1367.69 281.8 1367.79 281.7 1367.79 281.6 1367.59 281.5 1367.39 281.5 1367.39 281.6 1367.39 281.8 1367.49 281.9 1367.59 281.9 1367.59 281.9"/><polygon class="cls-3" points="1368.39 281.5 1368.39 281.4 1368.39 281.3 1368.19 281.3 1367.99 281.4 1367.99 281.6 1368.09 281.6 1368.09 281.6 1368.29 281.6 1368.39 281.5"/><polygon class="cls-3" points="1369.19 283.3 1369.29 283.3 1369.29 283.2 1369.19 283 1368.89 282.8 1368.79 282.8 1368.69 282.9 1368.99 283.1 1369.19 283.3"/><polygon class="cls-3" points="1363.99 271.7 1364.49 271.3 1365.09 270.7 1365.59 270.3 1365.99 269.9 1366.49 269.7 1367.29 269.4 1367.89 269.1 1368.59 268.9 1368.99 268.8 1369.39 268.7 1369.79 268.7 1370.19 268.8 1371.89 269.2 1372.49 269.3 1373.39 269.7 1374.39 270.1 1374.49 270.1 1374.49 270 1374.09 269.8 1373.59 269.6 1373.09 269.4 1372.49 269.2 1371.89 269 1371.09 268.9 1370.29 268.7 1370.29 268.7 1369.39 268.6 1368.99 268.6 1368.49 268.7 1367.89 269 1367.19 269.3 1366.39 269.6 1365.99 269.8 1365.49 270.2 1365.09 270.6 1364.49 271.2 1363.89 271.7 1363.39 271.9 1363.39 272 1363.49 272 1363.99 271.7"/><polygon class="cls-3" points="1359.99 283.3 1360.69 284.7 1360.89 285.1 1361.19 285.3 1361.29 285.3 1361.29 285.2 1361.29 285.2 1360.99 284.8 1360.49 284 1360.19 283.3 1359.79 282.1 1359.59 281.4 1359.69 280.6 1359.99 278.9 1360.09 278.3 1360.19 277.4 1360.49 276.7 1360.79 276 1360.99 275.4 1361.09 275 1361.29 274.6 1361.59 274.1 1361.99 273.6 1362.09 273.1 1362.19 272.7 1362.59 271.6 1362.69 271.4 1362.99 271.2 1363.19 271.1 1363.19 271 1363.09 271 1362.69 271.2 1362.59 271.4 1362.29 271.7 1362.09 272.4 1361.89 273.5 1361.19 274.5 1360.89 274.9 1360.79 275.4 1360.69 276 1360.49 276.6 1360.19 277.3 1359.99 278.3 1359.89 278.9 1359.69 279.6 1359.49 280.5 1359.49 281.3 1359.59 282.1 1359.99 283.3"/><polygon class="cls-3" points="1363.59 276 1363.79 275.8 1363.69 275.7 1363.59 275.7 1363.39 275.7 1363.29 275.8 1363.39 275.9 1363.59 276"/><polygon class="cls-3" points="1368.99 283.7 1369.09 283.7 1369.09 283.6 1368.99 283.5 1368.89 283.4 1368.79 283.5 1368.89 283.6 1368.99 283.7"/><polygon class="cls-3" points="1374.49 278.8 1374.29 279.1 1373.99 279.6 1373.99 279.7 1374.09 279.7 1374.29 279.5 1374.49 279.2 1374.79 279 1374.79 278.8 1374.69 278.7 1374.49 278.8"/><polygon class="cls-6" points="1339.79 324.8 1340.19 325.1 1340.29 325.1 1339.89 324.7 1339.49 324.4 1338.69 323.9 1339.39 324.5 1339.79 324.8"/><polygon class="cls-6" points="1329.59 334.9 1329.59 334.8 1329.49 334.9 1329.49 335 1329.59 334.9"/><polygon class="cls-6" points="1356.69 304.9 1356.99 305.3 1357.29 305.6 1357.39 305.4 1357.49 305.1 1357.39 305 1357.29 304.8 1357.29 304.7 1357.09 304.2 1356.99 303.5 1356.89 302.8 1356.89 302.1 1357.19 301.5 1357.39 300.8 1357.69 300.3 1358.29 299.6 1358.79 298.9 1359.49 298.4 1359.79 298.1 1359.99 298 1360.19 298 1360.39 298 1360.59 297.9 1360.89 297.6 1361.19 297.4 1361.49 297.3 1362.09 297.3 1362.89 297.3 1363.49 297.5 1363.99 297.7 1364.39 297.9 1364.69 297.6 1364.69 297.5 1364.49 297.4 1363.79 297.1 1363.79 297.1 1363.39 296.9 1362.99 296.8 1362.39 296.8 1361.59 296.8 1360.99 296.8 1360.59 297 1359.79 297.4 1359.29 297.7 1358.69 298.2 1358.29 298.5 1357.89 299 1356.99 300.4 1356.59 301.1 1356.39 301.8 1356.39 302.6 1356.39 303.7 1356.59 304.4 1356.69 304.9"/><polygon class="cls-6" points="1362.99 307.5 1362.99 307.5 1362.99 307.1 1363.09 306.9 1363.39 306.5 1363.69 306.2 1363.79 305.9 1363.69 305.8 1363.59 306 1363.39 306.2 1362.99 306.6 1362.69 306.8 1362.69 306.9 1362.69 307.1 1362.79 307.2 1362.89 307.3 1362.99 307.5"/><polygon class="cls-6" points="1346.39 319.8 1345.79 318 1345.79 318 1343.69 319.4 1345.69 318.1 1345.99 318.7 1342.39 321.6 1341.69 320.9 1343.39 319.6 1341.49 321 1342.39 322.4 1346.39 319.8"/><polygon class="cls-6" points="1357.69 306 1357.99 306.3 1358.39 306.5 1358.69 306.7 1359.19 306.8 1359.89 306.9 1360.59 306.8 1361.39 306.8 1362.09 306.6 1362.19 306.5 1362.29 306.4 1362.29 306.1 1362.19 306.4 1361.99 306.5 1361.79 306.2 1361.59 306.1 1360.79 306.3 1360.19 306.3 1359.69 306.3 1359.09 306.2 1359.09 306.2 1358.79 306.1 1358.19 305.7 1357.89 305.7 1357.69 305.5 1357.69 305.9 1357.69 306"/><polygon class="cls-3" points="1371.19 270.5 1370.99 270.5 1370.49 270.9 1369.99 271 1369.69 271.2 1369.49 271.3 1369.39 271.5 1369.59 271.6 1369.79 271.6 1369.69 271.7 1369.69 271.8 1369.79 271.9 1369.99 272 1370.09 271.9 1370.09 271.6 1369.79 271.6 1369.89 271.5 1370.09 271.4 1370.29 271.6 1370.49 271.6 1370.29 271.3 1370.29 271.2 1370.39 271.2 1370.59 271.4 1370.79 271.5 1371.49 271 1371.59 270.9 1371.39 270.6 1371.19 270.5"/><polygon class="cls-3" points="1369.09 270.4 1368.89 270.4 1368.59 270.9 1368.49 271.2 1368.59 271.3 1368.69 271.4 1369.09 271.3 1369.19 270.9 1369.29 270.6 1369.49 270.5 1369.69 270.4 1369.69 270.2 1369.19 270.2 1369.09 270.4"/><polygon class="cls-3" points="1368.09 272.5 1367.89 272.8 1367.89 272.9 1367.89 273 1368.09 272.9 1368.29 272.7 1368.49 272.6 1368.69 272.6 1368.79 272.7 1368.89 272.6 1368.59 272.1 1368.49 272.1 1368.29 272.1 1368.09 272.5"/><polygon class="cls-3" points="1366.99 272.6 1366.89 272.6 1366.79 273 1366.89 273.3 1367.19 273.3 1367.39 273.2 1367.39 273.2 1367.49 273 1367.49 272.8 1367.39 272.7 1366.99 272.6"/><polygon class="cls-3" points="1367.49 272.1 1367.39 272.2 1367.39 272.4 1367.49 272.5 1367.69 272.6 1367.89 272.6 1367.89 272.5 1367.69 272.2 1367.49 272.1"/><polygon class="cls-3" points="1371.49 272 1371.39 272 1371.39 272.1 1371.49 272.2 1371.69 272.2 1371.59 272 1371.49 272"/><polygon class="cls-3" points="1371.39 274.2 1371.59 274.3 1371.89 274.3 1371.79 274.2 1371.39 274.2"/><polygon class="cls-3" points="1366.79 274.6 1366.89 274.8 1367.09 274.8 1367.09 274.6 1366.89 274.5 1366.79 274.5 1366.79 274.6"/><polygon class="cls-3" points="1366.69 273.9 1366.79 273.8 1366.69 273.6 1366.59 273.5 1366.49 273.7 1366.39 274.1 1366.49 274.4 1366.69 274.4 1366.69 274.3 1366.69 273.9"/><polygon class="cls-3" points="1366.29 275.6 1366.29 275.9 1366.39 275.9 1366.49 275.8 1366.49 275.8 1366.59 275.5 1366.39 275.5 1366.29 275.6"/><polygon class="cls-3" points="1366.89 275.9 1367.09 275.9 1367.09 275.7 1366.89 275.7 1366.79 275.8 1366.89 275.9"/><polygon class="cls-3" points="1368.69 283.1 1368.39 283 1368.39 283.1 1368.39 283.2 1368.49 283.3 1368.69 283.4 1368.69 283.4 1368.79 283.2 1368.69 283.1"/><polygon class="cls-3" points="1366.59 276.4 1366.49 276.3 1366.39 276.3 1366.39 276.6 1366.49 277 1366.69 277 1366.69 277 1366.79 276.9 1366.79 276.7 1366.59 276.6 1366.59 276.4"/><polygon class="cls-3" points="1370.39 272.2 1370.29 272.1 1370.29 272.3 1370.49 272.4 1370.59 272.4 1370.49 272.3 1370.39 272.2"/><polygon class="cls-3" points="1367.99 277.5 1368.09 277.4 1367.99 277.3 1367.89 277.3 1367.79 277.5 1367.89 277.6 1367.99 277.5"/><polygon class="cls-3" points="1368.49 275.5 1368.39 275.5 1368.39 275.6 1368.49 275.7 1368.69 276 1368.79 276 1368.79 275.8 1368.59 275.6 1368.49 275.5"/><polygon class="cls-3" points="1367.39 277.8 1367.49 277.8 1367.59 277.8 1367.59 277.6 1367.59 277.5 1367.49 277.4 1367.39 277.5 1367.39 277.8"/><polygon class="cls-3" points="1369.79 278.5 1369.79 278.3 1369.59 278.2 1369.59 278.5 1369.69 278.6 1369.79 278.6 1369.79 278.5"/><polygon class="cls-3" points="1368.59 276.3 1368.49 276.6 1368.59 276.7 1368.69 276.7 1368.79 276.5 1368.79 276.4 1368.69 276.3 1368.59 276.3"/><polygon class="cls-3" points="1367.89 275.8 1367.89 276 1368.09 276.2 1368.29 276.3 1368.39 276.2 1368.39 276.1 1368.39 276 1368.09 275.8 1367.89 275.8"/><polygon class="cls-3" points="1367.49 276.4 1367.59 276.5 1367.79 276.5 1368.09 276.6 1368.29 276.6 1368.29 276.5 1368.19 276.4 1367.99 276.3 1367.59 276.3 1367.49 276.4"/><polygon class="cls-3" points="1367.89 275.1 1367.79 275.1 1367.79 275.3 1367.89 275.4 1367.99 275.5 1368.19 275.4 1368.19 275.4 1368.29 275.3 1368.09 275.1 1367.89 275.1"/><polygon class="cls-3" points="1369.59 278.2 1369.59 278.2 1369.69 278 1369.59 277.9 1369.49 277.9 1369.29 278.2 1369.39 278.3 1369.49 278.3 1369.59 278.2 1369.59 278.2 1369.59 278.2"/><polygon class="cls-3" points="1368.29 279.8 1368.29 279.6 1368.19 279.4 1368.19 279.2 1368.09 279.2 1367.99 279.4 1367.99 279.6 1368.09 279.8 1368.29 279.8"/><polygon class="cls-3" points="1368.39 279.1 1368.39 279.1 1368.69 279 1368.59 278.7 1368.39 278.7 1368.19 278.8 1368.19 278.9 1368.29 279.1 1368.39 279.1"/><polygon class="cls-3" points="1368.69 279.9 1368.79 279.9 1368.99 279.8 1368.89 279.6 1368.49 279.6 1368.39 279.7 1368.59 279.9 1368.69 279.9"/><polygon class="cls-3" points="1367.49 276.8 1367.49 276.9 1367.79 277.2 1367.89 277.2 1367.89 277.2 1367.89 277 1367.69 276.8 1367.49 276.8"/><polygon class="cls-3" points="1370.59 273.4 1370.39 273.5 1370.39 273.7 1370.59 273.7 1370.89 273.5 1370.79 273.4 1370.59 273.4"/><polygon class="cls-3" points="1367.99 278 1367.99 278.2 1368.09 278.4 1368.19 278.3 1368.19 278.3 1368.19 278.1 1368.19 277.9 1367.99 277.9 1367.99 278"/><polygon class="cls-3" points="1369.99 275.7 1370.09 275.8 1370.19 275.7 1370.19 275.7 1370.19 275.5 1370.19 275.4 1369.99 275.4 1369.99 275.7"/><polygon class="cls-3" points="1370.39 274.4 1370.59 274.5 1370.59 274.4 1370.59 274.2 1370.49 274.1 1370.39 274.3 1370.39 274.4"/><polygon class="cls-3" points="1370.69 275.7 1370.89 275.7 1370.99 275.5 1370.89 275.3 1370.79 275.3 1370.49 275.4 1370.49 275.6 1370.49 275.7 1370.59 275.7 1370.69 275.7 1370.69 275.7"/><polygon class="cls-3" points="1370.89 273.8 1370.79 273.8 1370.79 274.1 1370.89 274.4 1371.09 274.4 1371.19 274.3 1371.19 274 1371.09 273.8 1370.89 273.8"/><polygon class="cls-3" points="1368.49 277.9 1368.49 277.8 1368.49 277.7 1368.39 277.7 1368.39 277.9 1368.49 277.9"/><polygon class="cls-3" points="1369.99 274.8 1369.99 274.9 1370.19 274.9 1370.49 274.8 1370.49 274.7 1369.99 274.7 1369.99 274.8"/><polygon class="cls-3" points="1368.69 277.4 1368.79 277.4 1368.79 277.2 1368.49 277 1368.49 276.8 1368.49 276.7 1368.29 276.8 1368.29 277 1368.29 277.1 1368.49 277.2 1368.69 277.4"/><polygon class="cls-3" points="1368.29 277.5 1368.19 277.5 1368.09 277.6 1367.99 277.7 1368.29 277.8 1368.29 277.8 1368.39 277.6 1368.29 277.5"/><polygon class="cls-3" points="1368.39 275.3 1368.59 275.3 1368.79 275.2 1368.89 275.1 1368.89 274.9 1368.69 274.9 1368.59 275 1368.39 275.1 1368.39 275.3"/><polygon class="cls-3" points="1368.49 274.4 1368.49 274.5 1368.69 274.6 1368.89 274.6 1368.99 274.8 1369.09 274.7 1369.19 274.5 1369.09 274.5 1368.79 274.5 1368.59 274.4 1368.49 274.4"/><polygon class="cls-3" points="1369.79 279 1369.79 278.8 1369.59 278.6 1369.49 278.6 1369.39 278.7 1369.49 278.9 1369.59 279.1 1369.69 279.1 1369.79 279 1369.79 279"/><polygon class="cls-3" points="1369.89 272.8 1369.89 272.9 1369.99 273 1370.09 273 1370.09 273 1370.19 273 1370.19 272.8 1369.99 272.8 1369.89 272.8"/><polygon class="cls-3" points="1370.19 276.1 1370.19 276.3 1370.29 276.4 1370.49 276.4 1370.59 276.2 1370.49 276 1370.39 275.9 1370.19 275.9 1370.19 276.1"/><polygon class="cls-3" points="1371.39 274.5 1371.39 274.6 1371.79 274.6 1371.79 274.5 1371.59 274.4 1371.39 274.5"/><polygon class="cls-3" points="1370.59 272 1370.59 272.1 1370.79 272.2 1370.99 272.2 1371.09 272 1371.09 271.8 1370.69 271.8 1370.59 272"/><polygon class="cls-3" points="1371.49 273.8 1371.49 273.6 1371.29 273.5 1371.19 273.5 1371.19 273.7 1371.39 273.8 1371.49 273.8"/><polygon class="cls-3" points="1370.89 272.7 1370.79 272.9 1370.49 273 1370.29 273 1370.29 273.2 1370.49 273.2 1370.79 273.2 1370.89 273 1370.99 273 1371.09 273.1 1371.19 273.2 1371.29 273.2 1371.39 273.1 1371.19 272.9 1371.19 272.9 1371.09 272.7 1370.99 272.7 1370.89 272.7"/><polygon class="cls-3" points="1370.09 272.4 1370.09 272.5 1370.09 272.6 1370.29 272.7 1370.39 272.6 1370.29 272.5 1370.09 272.4"/><polygon class="cls-3" points="1369.69 273.2 1369.69 273.4 1369.79 273.4 1369.99 273.5 1369.99 273.4 1369.99 273.4 1369.99 273.3 1369.79 273.2 1369.69 273.2"/><polygon class="cls-3" points="1369.19 273.1 1369.19 273 1369.19 272.9 1369.09 272.8 1368.99 272.9 1368.89 273 1368.99 273.1 1369.19 273.1"/><polygon class="cls-3" points="1368.79 273.1 1368.49 273.2 1368.39 273.3 1368.39 273.4 1368.69 273.5 1368.89 273.4 1368.99 273.4 1368.99 273.2 1368.89 273.2 1368.79 273.1"/><polygon class="cls-3" points="1369.39 272.7 1369.39 272.8 1369.69 272.9 1369.79 272.9 1369.79 272.8 1369.69 272.7 1369.49 272.6 1369.39 272.7"/><polygon class="cls-3" points="1369.49 272.1 1369.49 272.3 1369.59 272.4 1369.79 272.4 1369.89 272.3 1369.89 272.1 1369.89 272 1369.59 272.1 1369.49 272.1"/><polygon class="cls-3" points="1370.89 278.4 1370.79 278.3 1370.59 278.3 1370.59 278.5 1370.79 278.5 1370.89 278.4"/><polygon class="cls-3" points="1371.69 275.6 1371.79 275.7 1371.99 275.7 1372.19 275.7 1372.19 275.7 1372.09 275.5 1371.79 275.5 1371.69 275.6"/><polygon class="cls-3" points="1370.69 277.7 1370.69 277.8 1370.79 277.9 1370.99 278 1370.99 277.8 1370.99 277.6 1370.89 277.6 1370.69 277.7"/><polygon class="cls-3" points="1371.49 276.6 1371.49 276.6 1371.39 276.5 1370.99 276.3 1370.89 276.2 1370.79 275.9 1370.59 276 1370.69 276.2 1370.79 276.5 1370.89 276.5 1371.09 276.6 1371.19 276.7 1371.49 276.8 1371.49 276.6"/><polygon class="cls-3" points="1370.89 279.9 1370.89 279.8 1370.69 279.7 1370.49 280 1370.49 280.1 1370.59 280.2 1370.69 280.2 1370.89 280.3 1371.09 280.4 1371.29 280.4 1371.39 280.2 1371.29 280.2 1371.09 280.2 1370.89 280.1 1370.89 280.1 1370.89 279.9"/><polygon class="cls-3" points="1371.09 278.7 1370.99 278.7 1370.89 278.8 1370.89 278.9 1371.09 279 1371.09 279.1 1371.19 278.8 1371.19 278.8 1371.09 278.7"/><polygon class="cls-3" points="1370.89 279.5 1370.99 279.7 1371.09 279.7 1371.09 279.7 1371.19 279.6 1371.19 279.5 1371.19 279.3 1371.09 279.2 1370.89 279.4 1370.89 279.5"/><polygon class="cls-3" points="1370.69 277.3 1370.59 277.2 1370.49 277.2 1370.39 277.4 1370.19 277.4 1370.19 277.5 1370.39 277.6 1370.49 277.5 1370.59 277.4 1370.69 277.3"/><polygon class="cls-3" points="1372.29 276 1372.29 276 1372.19 275.9 1371.89 275.9 1371.79 276 1371.89 276.1 1372.09 276.1 1372.29 276"/><polygon class="cls-3" points="1372.09 274.6 1371.89 274.6 1371.89 274.9 1371.99 275 1372.19 275.1 1372.29 275 1372.19 274.8 1372.09 274.6"/><polygon class="cls-3" points="1371.69 277.2 1371.69 277.3 1371.79 277.4 1371.89 277.4 1371.89 277.4 1371.99 277.3 1371.69 277.2"/><polygon class="cls-3" points="1371.39 279 1371.49 279.1 1371.69 279.1 1371.69 278.9 1371.49 278.7 1371.39 278.7 1371.39 278.8 1371.39 279"/><polygon class="cls-3" points="1371.79 279.5 1371.79 279.5 1371.69 279.3 1371.49 279.3 1371.39 279.4 1371.39 279.5 1371.59 279.6 1371.79 279.5"/><polygon class="cls-3" points="1371.99 277.7 1371.99 277.6 1371.69 277.5 1371.49 277.6 1371.49 277.7 1371.69 277.8 1371.89 277.8 1371.99 277.7"/>
<text x="50" y="50" fill="gold" font-family="Verdana" font-size="60"> 阿联酋 </text>
</svg>