<svg id="Layer_1" data-name="Layer 1" xmlns="http://www.w3.org/2000/svg" viewBox="0 0 1500 1000"><defs><style>.cls-1{fill:#006c35;}.cls-2{fill:#fff;}</style></defs><g id="g4701"><path id="_21461584" data-name="21461584" class="cls-1" d="M1500,1000V0H0V1000Z"/><g id="g4699"><g id="g4695"><g id="g4623"><path id="path4621" class="cls-2" d="M1061.52,267.63c8.49-6.06,16.41-12.86,25.86-17.63-2.7,10.83-10.81,19.1-19.11,26.07-4.24,3.31-2.31,9.37-2.89,14-2.32-.55-4.44-1.1-6.76-1.84,2.13,27.54,5.21,54.9,6.57,82.44.19,3.12.38,6.43,3.08,8.45,12.74,11.38,25.87,22.58,35.14,37.09,3.66,5.69,5.59,12.12,7.52,18.54,2.32-10.65,2.13-21.66,1-32.5q-6.95-62.79-12.55-125.95c-.38-5.14-1.16-10.47-.58-15.61.39-4.77,5.21-8.81,10-8.45,2.9,2.39,4.44,5.7,6,9,3.86,8.63,7.34,18,6.37,27.73-2.31-.74-4.63-1.66-7.14-2.57,3.48,28.46,7,56.91,9.07,85.56,1,19.28,3.86,38.74-.19,57.84-3.47,17.62-12.16,35.43-27.6,45.53-12.93,8.45-28,13.22-43,16.34-6.17,1.29-12.54,1.84-18.53.19,6.37-3.49,13.51-6.06,20.27-9a176.08,176.08,0,0,0,28.18-14.69c8.3-5.51,17-11,23.17-19.09-7.73-20.57-20.47-39.85-38.61-52.52.58,20.2,1.54,40.76-1.54,60.78a20.92,20.92,0,0,1-6,12.3c-2.12-8.45-2.31-17.26-3.28-25.89-1.74-18.73-3.28-37.64-4.63-56.37,0-3.85-2.51-6.79-5.41-9-11.39-9.54-22-20.19-33-30.11.38,11.57,2.12,22.95,2.89,34.34,1.35,15.42,1.55,30.84,3.09,46.27,1,10.83,1.16,22.22-2.9,32.5-4.05,9.73-13.12,18-23.93,18.73a67,67,0,0,1-17.18-.92c-6-.92-10.62-5.51-13.32-10.65-3.28-6.24-5-13.22-7.72-19.65-5,1.1-10.23,2.21-13.9,6.06-7.72,7.35-10,18.55-13.7,28.09-2.13,5.7-4.64,11.94-10.23,15.06-5.8,3.3-12.94,2-18.54-1.1-8.49-4.59-13.7-13.41-16.21-22.4-2.51-7,1-15.06-3.28-21.67-3.09-6.06-1.35-13.22.19-19.46,3.28-11.2,10.23-20.75,18.53-28.83l-33-28.64c1,26.44,3.09,52.88-.38,79.13a23,23,0,0,1-6.37,14.14A100.44,100.44,0,0,1,854.59,454q-4.05-43.51-7-87c-.19-3.3-.77-7-3.47-9.18a419,419,0,0,1-32-34c-5.79-7.34-11.78-14.87-14.87-23.68-1.16-3.68-2.12-8.82,1.35-11.57,4.06.37,7.73,2.2,11.2,4a78.21,78.21,0,0,1,17.57,13.95c2.31,2.39,3.47,5.51,4.43,8.63-3.28,0-6.37-.18-9.65-.18a129,129,0,0,0,23.17,25.34c-.78-24.61-3.48-49.39-4.64-74,0-3.3,0-7,2.32-9.73,2.12-2.39,5.41-3.31,8.3-4.41a79.78,79.78,0,0,1,11.58,26.08c1,3.67.77,7.52.58,11.38-2.31-.55-4.63-1.29-6.75-2,1.54,20,3.66,39.84,5,59.86a43,43,0,0,0,1.16,8.44c1.16,2,2.9,3.31,4.44,4.78,13.71,11.57,27.41,23.13,41.31,34.33,8.3-7.16,16.41-14.5,24.71-21.48a44.45,44.45,0,0,0,5.4-5c1.55-1.65,1-4,1-6.06-2.7-24.05-4.64-48.1-6.76-72.16-.58-8.81-1.93-17.44-1.93-26.07-.19-5.14,3.86-10.28,9.07-10.46,2.32-.19,3.29,2.38,4.44,3.85a79.9,79.9,0,0,1,8.5,21.85c1,3.67.58,7.53-.2,11.39-2.12-.92-4.44-2-6.56-2.94,2.9,22.58,5.21,45.17,7.34,67.75,6-4.41,11.38-9.55,17-14.32,6.18-5.33,12.74-10.47,18.73-16.16-7.15-7.71-14.67-14.87-22-22.4-4.63-4.77-10.23-9.36-12.16-16.16-1.54-4.77-.58-9.91.39-14.5,8.68,1.47,16.21,6.61,23.16,11.75A135.65,135.65,0,0,1,992,296.09c-.39-9.55-1.55-19.1-2.32-28.65,0-3.67-.38-7.71,2.13-10.65,2.12-2.38,5.4-3.3,8.1-4.59,5.6,7.35,9.07,16.16,11.39,25a36.87,36.87,0,0,1,1,12.12c-2.32-.55-4.83-1.1-7.15-1.65.78,7.34,1.55,14.51,2.51,21.85,9.08-6.79,17.38-14.51,26.45-21.3,3.09-2.94,8.68-5.14,8.68-10.28.2-5.51-1-11.2-.19-16.71a9.7,9.7,0,0,1,10-8.26c4.63,4.4,6.37,9.91,8.88,14.69Zm-47.1,53.06c-1.54,1.65-4.44,3.12-4.25,5.88,1.16,2.38,3.48,4.22,5.41,6.24,11.19,10.1,21.81,20.75,33.58,29.93-.38-10.84-1.54-21.48-2.12-32.32-1-11.38-1.35-22.77-2.51-34.15-10.42,7.53-19.88,16.34-30.11,24.42Zm-28.38-20c2.51,2.75,4.83,5.51,7.34,8.26,0-2.75-.19-5.51-.19-8.26Zm-27,67c-1.93,1.65-4.25,3.48-4,6.24-.2,13.95,1.35,28.27-2.13,41.86-.77,3.49-3.28,5.88-5.79,8.08-3.09-13.4-3.28-27.17-5.6-40.76-8.3,6.61-16.21,13.77-23.93,20.93,4.44,5,8.88,10.28,10.42,17.08,2.51,9.36-.38,20.19-8.1,26.44-9.46,7.89-22.2,9.18-34,10.65,1.74,7.71,3.28,15.79,7.92,22.4,2.89,3.85,7.52,7.52,12.54,6.06,5.41-1.47,8.69-6.61,10.62-11.39,3.86-9.73,8.11-19.28,13.9-28.09,4.63-7.35,12.16-13.4,21-13.59,2.89.19,6.75-.73,8.49,2.39,3.86,6.43,5.21,14.14,10,20.2,8.11,10.65,25.29,10.83,34.94,2,3.28-2.94,3.28-7.72,2.89-11.76-4.44-36.53-7.72-73.44-11.58-110C983.73,346.58,971.57,357.23,959,367.7Zm-68.14,62.42c-2.12,2.76-3.28,6.25-4.25,9.73a41.25,41.25,0,0,0,25.1-5.32c2.31-1.47,5-3.86,4.44-7-.58-6.24-5.79-10.65-10.43-14.32a142.48,142.48,0,0,0-14.86,16.89Z"/></g><path id="path4625" class="cls-2" d="M528.37,252c2.32-1.47,4.44,1.1,6,2.75,4.63,5.7,9.65,11.39,12.35,18.37-2.31.36-4.82.73-7.14,1.1.58,11,9.84,18.54,12.55,29a40.66,40.66,0,0,1,.77,19.83c-1.93,8.81-9.27,16.52-18.34,18-10.62,1.84-22.58-.73-30.5-8.63-5.21-5.14-7.14-12.48-9.46-19.09-2.51,9-6.17,17.62-12.54,24.6-3.67,4.22-8.5,7.16-13.32,9.73,1.35,24.61,3.86,49.21,1.74,73.63-.78,7-1.16,15.24-7.53,19.83-2.32-9.73-2.7-19.83-3.86-29.93-2.13-20.38-3.67-40.76-5.79-61.14-6-1.47-12.55-2.76-17.18-7.16-7.72-7-10.23-17.81-9.65-27.73.19-7.71,2.7-15.24,4.44-22.77a27.92,27.92,0,0,0-6.57,10.29c-4.05,12.3-6.75,25.15-12.35,36.9-2.13,4.59-6.18,8.45-11.2,9.55-6.17,1.29-13.51.92-18.34-3.86-5.21-5.14-6.37-12.85-7.14-19.83-.38-7.16-1-14.87,2.32-21.48,1.93-4,6-6.24,9.46-8.26-2.32,3.86-5,7.71-5.6,12.12-.77,6.24.39,12.67,1.54,18.73.78,3.67,1.55,7.71,4.44,10.28,4.44,4,12,3.67,16.22-.37,2.31-2.57,3.47-5.87,4.63-9,3.86-11.75,6.95-23.87,11.78-35.25,4.24-9.55,11.77-18.91,22.58-20.93-1.16,13-7.14,25.15-7.53,38.37-.19,5.88.39,12.31,4.25,16.9,2.89,3.85,7.72,5.14,12.16,6.42-1.16-17.81-2.9-35.62-4.05-53.61-.39-6.61-1.55-13.41-.39-20,1-4.59,6-6.24,9.84-7.71,7.34,10.84,12.74,23.69,12.55,36.91-2.51-.55-4.83-1.1-7.33-1.65,1.54,15.24,3.08,30.66,4.82,45.9a29,29,0,0,0,15.83-11.57c7.53-10.83,8.69-25,5-37.46-1.55-5.32-4.06-10.28-5.21-15.79-1.16-5.14,2.51-10.46,7.14-12.11,2.12-.92,3.09,1.65,4.05,3.12,2.9,6.24,3.86,13.22,5.21,20,1.74,9,0,18.36,3.29,27,2.7,7.35,7.52,14.14,14.47,18a28.09,28.09,0,0,0,18.53,2.75,8.31,8.31,0,0,0,6.37-6.24c1.55-5.88-.58-11.94-3.09-17.26-5.79-12.12-12.93-23.69-15.63-36.91-1-4.77.39-11.38,5.4-14.32Z"/><path id="path4627" class="cls-2" d="M793.4,266.16a36.59,36.59,0,0,1,16-14.14c-1.73,4.59-4.44,8.45-6.95,12.49-1.93,2.93-1.93,6.61-2.12,9.91a62.88,62.88,0,0,0,13.13-2c-1.16,3.49-2.32,7.16-5.6,9.36-3.67,2.58-9.07,4.23-12.93,1.11-4.06-4.23-4.64-11.57-1.55-16.71Z"/><g id="g4631"><path id="path4629" class="cls-2" d="M554.05,258.08c1.93-2.94,5.59-4,8.49-5.33,6,7.72,9.65,17.08,12,26.44,1,3.68.58,7.35.19,11-2.12-.73-4.44-1.47-6.56-2.2,2.51,17.81,5.6,35.43,7.72,53.25,10.23-5,19.69-11,30.3-15.43a33.4,33.4,0,0,1,10.43-2.57c-1.35,2.94-2.9,5.88-6,7.16C599.41,336.11,588,341.07,577,347.31c1,8.82,1.93,17.81,3.09,26.63,5-6.43,9.45-14.51,18.14-16.53.39,4.78-1.16,10.47,2.32,14.32,5.4,4.23,12.74,1.66,17.76-2.2-.39-7,1.54-13.77,2.89-20.56,2.12.91,4.83,1.28,5.6,3.85,2.32,6.43,1.74,13.59,0,20-1.74,7.34-7.72,12.85-14.29,16.15-4,2-9.07,3.13-13.51,1.29-4.63-1.84-7.53-6.24-10.61-10.1-2.71,6.61-7.15,12.67-7.34,20.2-.77,15.79-7,30.85-16.41,43.33-16.4,21.48-41.5,34.34-67,41.86-14.67,4-29.92,7.72-45.36,7-8.3-.18-16.79-2-23.93-6.42-3.09-2-5.8-4.78-8.88-6.61-3.86-.74-7.92.36-12,.36-9.65.37-19.3.74-28.76-.92,11.58-3.85,23.35-6.79,34.74-11a92.36,92.36,0,0,1,11.58-60.23,62.87,62.87,0,0,1,10.43-12.67c-3.28,6.61-7.34,13-9.07,20.38a86.28,86.28,0,0,0,.77,47c7.91-2.57,15.63-6.06,23.16-9.37,17.57-7.71,34.75-16,50.77-26.62,6-4.22,12.16-8.63,16.21-15.06,1.93-3.12,1.55-6.79,1.55-10.28-8.3,1.66-16.41,5.51-25.1,5.33-5.4-.37-11.19-1.47-15.05-5.69s-4.06-10.29-3.29-15.61c1.16-7,4.25-14,9.85-18.55,6.37-5.32,15.83-5.14,23.16-1.83,7.14,3.3,11.2,10.28,14.67,16.89,10.81-4,18.15-13.59,28.76-18.18.39,5.51-.19,11.94,4.06,16.34,2.51,3.13,6.75,2.94,10.23,3.31-.58-8.81-1.93-17.44-3.09-26.07-3.67-28.83-7.34-57.84-10.42-86.85-.2-4.23-.78-8.63,1.35-12.12ZM488,383.49c-1,2,1.35,3.3,2.9,4,5.79,2,12.16.73,18.14-.37-3.09-3.31-6.75-7-11.77-7.16-3.28-.19-7.92,0-9.27,3.49Zm42.08,11.93c.39,5.88.58,11.75-1.35,17.26-3.09,9.36-10.23,16.89-17.57,23.14-14.09,11.56-30.69,19.09-46.71,27.54-7.14,4.22-14.86,7.53-22.58,10.83,9.84.73,19.69-.92,29.34-1.65,14.86-.92,29.15-5.14,42.85-10.65,14.28-5.88,28.18-13.41,39.38-24.42,6.75-6.61,12.16-14.87,14.48-24.24,1.15-4.59,1.15-9.36,1.35-14.14-5.79-.18-12,0-17.18-2.93-4.25-2.39-6.57-7-9.08-11a95.4,95.4,0,0,1-12.93,10.28Z"/></g><path id="path4633" class="cls-2" d="M687,257.53c2.13-2.39,6-2,8.5-.37A19.45,19.45,0,0,1,704,274.24c-.19,3.12-1.54,5.87-2.51,8.63-.77-4.23-.58-8.63-2.51-12.49-2.89-4-8.3-4.77-11.77-8.08C685.89,261.2,685.31,258.63,687,257.53Z"/><path id="path4635" class="cls-2" d="M766.19,259.73c.38-2.57,2.89-5.32,5.59-3.85,7.53,3.67,12.94,10.65,16.41,18.17-2.7,0-5.4-.18-7.91-.36a105.76,105.76,0,0,0,4.82,15.05c2.9,7,6.95,13.59,8.11,21.3,1.35,8.45-.19,18-6.18,24.42-11.19,12.49-33.58,10.28-43.24-3.12-3.66-4.77-5.59-10.28-7.52-16-3.09,12.11-9.66,23.87-20.66,30.11-11.19,6.79-26.06,5.87-36.67-1.29-6.57-4.22-11-11.56-11-19.28-.77-11.38,3.67-22,5.22-33.05-2.71,2.76-5.22,5.88-6.37,9.73-4.64,12.31-6.57,25.53-13.13,37.09-3.09,5.51-8.3,10.47-14.86,11-6.37.37-13.32-2-17-7.53-3.28-5.14-4-11.38-4-17.44a60.37,60.37,0,0,1,6.56-26.62c0,11.56-3.48,24.23,2.32,35.07,2.89,6.06,10.61,9.54,16.6,6.24,5.4-3.31,7.91-9.55,9.84-15.24,4-12.12,8.3-24.42,14.28-35.81,2.51-4.59,5.22-9.36,9.46-12.66,2.13-1.84,5.21-1.84,7.92-2.39.58,10.28-5.21,19.28-7.14,29.19-1.94,8.63-2.51,18.92,3.66,26.08,7,7.52,18.53,9.36,28.18,6.79,13.32-4.22,23-17.63,23.55-31.58.39-8.26.78-17.26-3.66-24.61-1.93-3.85-5.6-7.89-4.06-12.66,1-4.78,4.44-8.45,8.5-10.65,2.89,4.59,5.4,9.54,6,15.05,1.54,12.67,1.74,25.71,6.18,37.83,2.7,7,6.75,14.13,13.9,17.44,6.56,3.12,14.67,3.85,21,.55,4-2,5-7,4-11-2.7-13.22-11.78-23.68-16-36.35-2.32-6.43-4.06-13-2.7-19.65Z"/><path id="path4637" class="cls-2" d="M895.9,257c4.05-1.84,9.84-.37,11.77,3.85.78,2-.57,3.86-2.12,5-2.89-.55-5.4-2-7.91-3.12-3.28,6.24-5,13.22-6.95,20.2-1.35-3.31-2.51-6.8-4.63-9.73-2.71-3.68-6.95-5.51-10-8.82-1-2.94,2.51-6.24,5.4-5.32,4.25,1.28,6.76,5.14,9.27,8.63,1.16-3.86,1.74-8.45,5.21-10.65Z"/><path id="path4639" class="cls-2" d="M376.65,272.4c3.29-7,9.66-12.12,16.6-15.42-1.73,4.59-4.63,8.44-6.94,12.67-1.93,2.93-1.74,6.61-1.93,9.91a57.46,57.46,0,0,0,13.31-2.75c-1.35,3.49-2.7,7.34-6,9.73-3.47,2.57-8.69,4-12.35,1.47C375.11,284.34,374.34,277.54,376.65,272.4Z"/><g id="g4643"><path id="path4641" class="cls-2" d="M623.54,263c1.16-6.06,10.23-5.88,13.12-1.29,1.93,3.31,2.9,6.79,4.83,10.1,1.74,3.3,3.86,6.79,2.7,10.65-1.74,6.06-6.18,10.83-6.75,17.26,2.12-.92,4.24-2,6.37-3.12-.58,3.3,0,7.71-3.48,9.55-4.25,2-9.46-2-9.07-6.61.58-8.27,8.68-14.69,6.18-23.51-8.11,10.84-19.31,20.57-33,22.59,6-4.78,12.74-8.08,18.14-13.59,3.48-3.31,5.79-7.53,8.11-11.57-2.9-2.94-7.91-5.69-7.14-10.46Zm5.6-.55a15.15,15.15,0,0,0,5,4.77A7.47,7.47,0,0,0,629.14,262.49Z"/></g><path id="path4645" class="cls-2" d="M580.68,266.89c2.9-.73,6.37-1.83,8.69.74a27.1,27.1,0,0,1,7.92,25.89c-1.55-3.49-2.71-7.16-4.44-10.47-2.9-6.24-9.27-9.91-12.16-16.16Z"/><path id="path4647" class="cls-2" d="M518.53,270.75A13.37,13.37,0,0,1,522.2,282c-4.64.73-9.27,2-13.9,3.12a4.82,4.82,0,0,1-5.79-3.67c-.19-2.76.77-5.33,1.35-8.08,1,2.75,1.93,5.51,2.9,8.44,1.15-.55,2.5-.91,3.66-1.46v-7.53h2.71c.38,2.2.77,4.59,1.15,6.79,1.55-.18,2.9-.37,4.44-.55-.19-2.75-.19-5.51-.19-8.26Z"/><path id="path4649" class="cls-2" d="M910.57,276.81a40.94,40.94,0,0,1,11.58-1.47,18.62,18.62,0,0,1-6.75,5.32c-13.32,5.33-27,9.18-39.77,16,1.16,2.38,2.32,4.59,3.48,7-3.09-.55-6.76-.55-9.08-3.12-2.12-2-2.31-5.87.2-7.71a30.93,30.93,0,0,1,6.95-3.67c11-4,22-8.63,33.39-12.3Z"/><path id="path4651" class="cls-2" d="M708.86,286.36a35.51,35.51,0,0,1,4.82-3.13c-.19,5,1.55,9.37,3.67,13.77s.39,10.65-4.83,11.76c-4.44,1.46-8.49-1.29-11.58-3.86-2.51,2.2-5.21,5.14-8.88,4.59-6.75-.37-10-8.26-8.68-14.14.58-3.85,3.66-6.24,6.37-8.63-.39,4-1.93,8.08-1,12.12.77,2.75,4.05,2.75,6.37,3.67.77-4.4,1-9,2.12-13.58.39-2.39,3.29-2.57,4.83-3.68.39,3.86.19,7.72,1.35,11.39,1,2.75,4.25,3.67,6.56,4.95,1.16-5.32-1.15-10.28-1.15-15.23Z"/><path id="path4653" class="cls-2" d="M508.49,293.33c2.9,0,6.37-.55,8.69,1.84,6.56,6.42,9.84,16.52,7.33,25.52-2.31-6.06-4.24-12.67-9.26-17.26C512.16,300.68,509.07,297.56,508.49,293.33Z"/><path id="path4655" class="cls-2" d="M908.06,316.47a24.85,24.85,0,0,1,4.83-4c0,4.59,1.54,8.81,3.47,12.85s1.93,10.47-2.89,12.3c-4.44,2-9.08-.36-12.74-2.93-2.9,2.2-6.37,5-10.43,3.85-6-1.28-8.49-8.26-7.53-13.77.39-4,3.86-6.61,6.57-9.18-.58,4.22-2.32,8.45-1.16,12.67,1,2.75,4.25,2.2,6.56,2.75.77-4.77.39-9.73,2.32-14.14a20.12,20.12,0,0,1,4.82-2.57c.2,4.23-.58,8.82,1.55,12.67,1.35,2.39,4.24,2.57,6.56,3.31-.19-4.59-1.54-9.18-1.93-13.77Z"/><path id="path4657" class="cls-2" d="M1068.47,323.08a4.36,4.36,0,0,1,4.24-5.88c4.83,0,8.5,4,10.81,7.9,4.06,7.89,6,17.44,2.71,25.89-1.74-7.53-1.55-17.08-8.5-22-3.09-1.83-6.75-2.93-9.26-5.87Z"/><path id="path4659" class="cls-2" d="M801.9,339.6a8.88,8.88,0,0,1,8.68-2.38c3.86,3.67,3.09,10.28,0,14.13-5.6,7.35-14.86,10.84-23.93,10.84,5.59-3.31,12-5.14,17-9.37,2.32-1.65,1.93-4.77,2.32-7.34-2.7.37-5.41.92-7.92,1.28,1.16-2.38,2.13-4.95,3.87-7.16Z"/><path id="path4661" class="cls-2" d="M931.61,345.29c1.74-.36,4-1.46,5.21.37-1.35,4.41-6,6.24-9.65,8.08-13.9,6.43-27.41,13.59-41.11,20.57-.58-1.29-1.36-2.39-1.93-3.68,7.72-5.69,16.21-9.91,24.51-14.5,7.72-3.86,15.06-8.08,23-10.84Z"/><g id="g4665"><path id="path4663" class="cls-2" d="M670.06,356.13c.38-2.76,2.31-4.78,3.86-6.8,10.61,11.57,19.69,25,24.51,40.22,4.63,14.5,5.79,29.74,8.69,44.61,1.54,7.53,2.89,15.43,7.91,21.49,3.28,4.22,8.11,6.79,12.74,9.36,1-4.77,2.13-9.92,6.57-12.67,13.51-9,29.14-14.5,44.59-19.46-12.55-.37-25.29,0-37.84-.19-10.23-.18-20.46.74-30.5-1.1.39-3.85.39-7.89,2.71-11.38,4.63-7.71,12.74-12.12,20.46-16.16,11.77-6.06,23.74-11.38,36.48-14.87-3.28-3.49-8.3-7.35-7-13,2.32-6.61,8.11-13.22,15.44-13,8.11,0,16,3.31,23,7.35,4.25,2.75,9.46,5.69,11,10.83-.19,3.67-2.12,7-4.24,9.92-4.44,5.51-12.36,5.14-18.92,5.87-.38,4.41-1,9.73-5.4,11.75-1.35-3.48-2.71-6.79-4.25-10.28-16,2.94-30.31,11.2-42.85,21.12,35.52.18,70.84-.74,106.36-.55,2.31.18,4.63.36,7,.73-1.55,9.37-11,14-19.31,16-16.79,3.67-33.58,7-50.38,10.28-12.54,2.57-25.28,5.51-36.67,11.2-4.25,2-7.72,5.51-10.62,9.36,8.3,3.12,17,5,25.67,6.61,2.9.74,7,1.29,7.72,4.78,1.16,4.59,1.36,11-3.08,13.95-5.6,1.29-11.39,0-17-.92-15.44-2.38-30.31-10.46-39.19-23.68-6.75-9.55-8.68-21.49-10.42-32.87-4.44,6.24-9.07,12.49-14.67,17.63-15.06,14.13-33.2,24.42-52.12,32.68-6.56,2.94-14.86,3.86-21.42-.18-4.64-2.76-6.37-8.45-8.3-13.22-17.57,9-35.52,17.62-55,21.3-12,2.2-24.12,3.85-36.29,3.67,6.37-3.12,12.94-5.51,19.31-8.08,21.23-8.82,42.08-18.73,62.54-29.38,2.51-1.47,5.6-2.75,7.33-5.14,1.93-5.33,2.13-11,5-16.16,2.9-6.24,8.11-11,13.71-14.69-3.67,8.08-7.53,16.34-8.69,25.16,12.35-7.53,24.13-16,34.55-26.26,2.71-2.94,6.57-6.61,5-11-1.93-6.24-5.21-11.75-7.53-17.81-3.47-8.81-7.72-18-6.75-27.72.19-3.12,2.51-5.51,4.05-7.9,8.49,5.51,13.9,14.51,18.73,23.14-1.74.37-3.67.73-5.41,1.1,3.28,9,8.69,17.08,10.23,26.62,1.16,7.35-.58,15.43-5.79,20.94C642.45,443.34,626.24,454,611,465.56c2.7,1.47,5.6,3.49,8.88,3.31,6.37-.19,12.55-2.39,18.34-4.78,21.23-9.36,38.6-25,56.55-39.48-4.43-17.25-12.35-33.41-20.65-49.2-2.89-5.51-5-12.49-4.05-19.28Zm102.5,22.77a18.52,18.52,0,0,0,8.49,6.61c5.21,1.1,10.23-2,14.09-5.33-4.83-3.67-10.42-6.61-16.6-6.61-2.9,0-6,2.39-6,5.33Z"/></g><g id="g4669"><path id="path4667" class="cls-2" d="M404.45,356.13c.19-2.21,1.93-4.59,4.44-4.41,6.56-.73,11.2,4.59,15.25,8.81,2.12,2.21,3.86,5.15,2.51,8.27-.77,3.49-4.83,3.3-7.53,4-5.79.36-8.11,6.61-12.55,9.36-8.88,6.06-19.88,10.83-30.88,9.36,2.7-3.85,7.14-5.5,11.39-6.79,7.91-2.57,14.28-8.26,20.07-14.14-1.54-4.77-3.47-9.54-2.7-14.5Zm3.67.73A22.33,22.33,0,0,0,411,366c1.16-2.57,2.32-5.32,3.28-7.89A61.6,61.6,0,0,0,408.12,356.86Zm8.68,11.94c2.13-.19,4.25-.55,6.37-.74a29.22,29.22,0,0,0-2.12-8.08c-2.7,2-3.09,5.7-4.25,8.82Z"/></g><path id="path4671" class="cls-2" d="M732.21,357.6c1.16-1.47,3.09-2.39,4.63-3.31,0,6.43,4.64,11.39,5.22,17.63.58,6.42-7.72,9.73-12.74,6.79-1.55-1.1-2.9-2.38-4.25-3.49-2.7,2.39-5.6,5.88-9.65,5-6.18-1.1-9.46-8.26-8.3-14.14.58-4,3.86-6.61,6.75-9-.57,3.85-1.93,7.52-1.54,11.56.39,2.94,3.67,3.86,6,5.14,1.55-4.4,1.93-9.18,2.71-13.95.38-2.57,3.47-2.94,5.21-4.22.19,3.85,0,7.89,1.16,11.56,1.15,2.58,3.86,3.86,6,5.33,2.32-5-1-9.92-1.16-14.87Z"/><path id="path4673" class="cls-2" d="M424.14,381.1c3.28-1.47,6.76-3.31,10.42-3.67,3.48-.19,5.21,5.14,2.51,7.34-4.05,3.12-8.88,4.41-13.51,6.43-10.81,5.14-21.62,10.1-32.24,15.79-2.31,1.47-5.21,1.1-7.72.73a18.29,18.29,0,0,1,6.76-7.89C401.55,393,412.75,386.79,424.14,381.1Z"/><path id="path4675" class="cls-2" d="M830.08,386.79c.77-3.67,5-4.22,8.1-5.32.78,5.32,1.36,10.83,4.64,15.24-1.74.18-3.48.36-5,.55-2.32,3.49-4.83,7.34-8.69,9.18-6.37,3.12-13.51,3.12-20.46,2.75,7.34-2,16.41-2.57,21.23-9.18,3.29-3.85-.19-8.81.2-13.22Z"/><g id="g4679"><path id="path4677" class="cls-2" d="M975.81,392.12c1-2.94,4.44-2.94,7-2.57,5.41.91,9.27,5.5,12.74,9.36a7.24,7.24,0,0,1,1,9.55c-3.48,2.75-9.07,1.1-12.16,4.77-9.27,10.65-23.55,17.44-37.84,16,2.71-3.86,7.15-5.51,11.59-6.8,7.91-2.57,14.09-8.44,19.88-14.14-1.55-5.14-3.86-10.65-2.13-16.15Zm3.67,2.2a42.33,42.33,0,0,0,2.32,9.73,41.15,41.15,0,0,0,3.47-7.89C983.34,395.42,981.22,394.87,979.48,394.32Zm11.2,4a57.63,57.63,0,0,0-2.71,8.08c2.13-.19,4.25-.55,6.37-.74a33.19,33.19,0,0,0-2.12-7.53C991.84,398.17,991.06,398.36,990.68,398.36Z"/></g><path id="path4681" class="cls-2" d="M610.6,397.81c3.67-3.49,10.23-1.65,12.55,2.57,1.16,2.39-1.35,4.22-2.32,6.06-1.93-1.1-3.86-2.57-6-3.12-1.93-.55-2.51,1.65-3.09,2.93-2.31,5.51-3.47,11.39-5.21,17.08-1.35-3.49-2.32-7-4.44-10.1-2.32-3.3-6.18-5.14-9.07-7.89-2.7-2.21.19-7,3.28-6.43,4.44.55,7.14,4.59,10.23,7.53,1.16-2.94,1.93-6.25,4.05-8.63Z"/><path id="path4683" class="cls-2" d="M378.58,429.76a36.5,36.5,0,0,1,16-14.14c-1.74,4.59-4.44,8.63-6.95,12.67-1.93,2.94-1.93,6.42-2.13,9.73a82.35,82.35,0,0,0,13.32-1.84c-1.16,3.49-2.51,7.35-5.79,9.37-3.67,2.38-8.88,4.22-12.74,1.1-4.25-4.59-4.63-11.75-1.74-16.89Z"/><path id="path4685" class="cls-2" d="M686.66,458c3.28-.55,7.14-2,10,.37,2.9,1.84,3.87,6.61,1.16,9.18-4.05,2.2-9.26.92-12.74,4,.58,4.77,4.25,8.63,5,13.22.2,2.94-2.12,5.32-3.47,7.71-1-4.59-1.74-9.55-4.25-13.59-1.54-2.93-3.86-5.87-3.09-9.36.77-3.86,4.83-5.69,7.72-7.53A24.46,24.46,0,0,1,686.66,458Z"/><path id="path4687" class="cls-2" d="M834.71,463.72c1.54-3.85,5.21-5.69,8.49-7.71-1.35,3.12-3.66,6.25-4.05,9.73,1.54,2.76,4.05,4.78,5.4,7.72.39,4.77-6.56,5.5-9.07,2.57-2.89-3.31-2.51-8.45-.77-12.31Z"/><path id="path4689" class="cls-2" d="M799,458.4c5.4-1.84,11.2,0,16,2.75-3.47,7.16-11.58,9-17.56,13.41a15.48,15.48,0,0,1,.38,2.94c4.25.18,8.69.73,12.36-1.47,4.82-2.57,9.84-5,15.24-6.06-4.24,3.67-8.3,7.34-12.54,10.83-5,4-12,4-17.95,2.39-2.9-.92-6.57-3.49-5.6-7.16,1.54-4.59,6.18-7,9.84-9.74l-7.91-.55C793.4,462.81,795.33,459.13,799,458.4Z"/><path id="path4691" class="cls-2" d="M939,471.44c-1.93-2.21-.2-5.88,2.5-6.25,5.22-.91,9.66,3.31,12,7.53,3.48,5.88,3.28,13.22.39,19.28-1-4.22-1-8.63-3.09-12.48-2.9-3.86-8.3-4.6-11.77-8.08Z"/><path id="path4693" class="cls-2" d="M1026.39,474.19c7.14-2.57,14.28-5.88,22-5.14-1.73,2.75-3.86,5.32-7.14,6.43-12,4.4-24.13,8.44-35.9,13.4a61.26,61.26,0,0,1-11.58,3.86c-.39-1.11-1-2.21-1.36-3.31,10.81-6.24,22.4-10.65,34-15.24Z"/></g><path id="path4697" class="cls-2" d="M1003.06,710.05H943.61v-5.64c2.68-2.32,6.32-5.47,6.32-7.29,0-3.15-7.48-9.62-9.2-9.62-1.92,0-9.21,6.63-9.21,9.62,0,2,3.26,4.8,6,7.12l.19.17v5.8H468.75c16.69,16.58,41.43,16.41,91.1,16.91,44.3.67,44.11.67,377.62,0v6c-2.69,2.32-6,5.47-6,7.29,0,3.15,7.1,9.62,9.21,9.62,1.34,0,5.75-3.65,8-6.8H969.3c1.35,2.32,4.42,3.65,8.06,3.65s6.71-1.49,8-3.65H1010c3.07,3.48,7.29,3.65,9.78,3.65,9.4-.33,11.51-5.14,11.51-21.72-.19-13.92-9.59-15.42-28.19-15.08Zm4.22,28H985.41c-1.34-2.32-4.41-3.81-8-3.81s-6.71,1.49-8.06,3.81H949.17a24.46,24.46,0,0,0-5.37-5.14v-6h63.67C1006.32,731.27,1006.13,735.08,1007.28,738.06Z"/></g></g>
<text x="50" y="50" fill="gold" font-family="Verdana" font-size="60"> 沙特 </text>
</svg>