<svg id="Layer_1" data-name="Layer 1" xmlns="http://www.w3.org/2000/svg" 

xmlns:xlink="http://www.w3.org/1999/xlink" viewBox="0 0 1500 1000"><defs><style>.cls-1,.cls-5{fill:none;}.cls-2{clip-path:url(#clip-path);}.cls-3{fill:#ea1e30;}.cls-4{fill:#fddf11;}.cls-5{stroke:#000;stroke-width:0.06px;}</style><clipPath id="clip-path"><rect class="cls-1" x="2.55" y="-2.05" width="1500" height="1000"/></clipPath></defs><title>Flag-of-kyrgyzstan</title><g class="cls-2"><rect class="cls-3" x="2.55" y="-2.05" width="1500" height="1000"/><path class="cls-4" d="M769.18,286.78c.47-36.69,33-61.93,34.37-110.8,23.33,29.28-15.22,84.16-1.54,116,6.22-36.16,42.26-56,51.28-104.07,18.46,32.58-28.21,80.76-19.67,114.34,11.78-34.74,50.5-48.7,66.93-94.77,13.14,35.06-40.48,75.36-37.31,109.87,17.08-32.48,57.5-40.21,80.91-83.14,7.52,36.69-51.77,68.09-54,102.68,22-29.41,63.09-30.72,93-69.46,1.65,37.41-61.8,59.16-69.45,93,26.29-25.61,67.11-20.47,102.67-54.05-4.22,37.2-70.29,48.75-83.11,80.94,30-21.18,69.48-9.72,109.84-37.33-10,36.09-77,37.17-94.76,66.95,32.9-16.24,70.14,1.27,114.33-19.69-15.5,34.08-81.91,24.66-104.06,51.3,35-10.89,69.07,12.23,116-1.56-20.64,31.25-84.76,11.54-110.81,34.39,36.29-5.3,66.29,22.85,114.79,16.57-25.28,27.62-85.53-1.87-114.82,16.63,36.67.47,61.91,33,110.79,34.37-29.28,23.34-84.16-15.23-116-1.54,36.16,6.22,56,42.26,104.07,51.29C1030,617.16,981.83,570.49,948.25,579,983,590.81,997,629.53,1043,646c-35,13.15-75.34-40.49-109.85-37.31,32.47,17.08,40.2,57.5,83.13,80.92-36.68,7.5-68.09-51.78-102.67-54,29.41,21.93,30.71,63.07,69.45,92.93-37.41,1.66-59.15-61.8-93-69.43,25.61,26.27,20.47,67.1,54,102.65-37.19-4.21-48.75-70.29-80.94-83.12,21.18,30,9.72,69.49,37.33,109.85-36.09-10-37.17-77.05-66.94-94.75,16.23,32.9-1.29,70.13,19.68,114.32C819.17,792.51,828.6,726.1,802,704c10.88,35-12.24,69.08,1.55,116C772.27,799.32,792,735.2,769.12,709.16c5.31,36.28-22.86,66.29-16.57,114.79-27.63-25.27,1.87-85.52-16.62-114.82-.49,36.68-33,61.91-34.38,110.79-23.34-29.27,15.22-84.16,1.53-116-6.21,36.17-42.26,56-51.27,104.07-18.47-32.57,28.21-80.76,19.67-114.34-11.79,34.75-50.52,48.7-66.93,94.77C591.4,753.36,645,713.06,641.86,678.56c-17.07,32.47-57.49,40.2-80.92,83.13-7.5-36.69,51.78-68.09,54-102.67C593,688.42,551.86,689.73,522,728.47c-1.66-37.4,61.8-59.15,69.43-93-26.28,25.61-67.1,20.47-102.65,54,4.21-37.2,70.29-48.75,83.12-80.94-30,21.18-69.49,9.72-109.85,37.33,10-36.09,77.05-37.16,94.76-66.94-32.91,16.23-70.14-1.28-114.33,19.69,15.5-34.09,81.9-24.66,104.06-51.31-35,10.89-69.09-12.23-116,1.56,20.63-31.24,84.75-11.54,110.79-34.39-36.27,5.31-66.28-22.85-114.78-16.57,25.27-27.62,85.52,1.87,114.83-16.63-36.69-.47-61.93-33-110.8-34.37,29.28-23.33,84.16,15.23,116,1.54-36.16-6.22-56-42.26-104.07-51.28,32.57-18.47,80.76,28.2,114.34,19.67-34.74-11.79-48.7-50.5-94.76-66.93,35-13.14,75.35,40.49,109.85,37.31-32.47-17.07-40.19-57.49-83.13-80.92,36.68-7.5,68.09,51.77,102.67,54-29.41-21.95-30.71-63.07-69.44-92.94,37.39-1.66,59.15,61.8,93,69.44-25.61-26.28-20.47-67.11-54-102.66,37.2,4.22,48.75,70.29,80.94,83.12-21.18-30-9.72-69.49-37.33-109.85,36.09,10,37.15,77,66.94,94.76-16.23-32.9,1.28-70.14-19.68-114.33,34.08,15.5,24.65,81.91,51.29,104.06-10.89-35,12.23-69.08-1.54-116,31.22,20.63,11.53,84.75,34.38,110.81-5.31-36.29,22.84-66.29,16.56-114.8,27.63,25.27-1.86,85.52,16.63,114.83"/><path class="cls-5" d="M769.18,286.78c.47-36.69,33-61.93,34.37-110.8,23.33,29.28-15.22,84.16-1.54,116,6.22-36.16,42.26-56,51.28-104.07,18.46,32.58-28.21,80.76-19.67,114.34,11.78-34.74,50.5-48.7,66.93-94.77,13.14,35.06-40.48,75.36-37.31,109.87,17.08-32.48,57.5-40.21,80.91-83.14,7.52,36.69-51.77,68.09-54,102.68,22-29.41,63.09-30.72,93-69.46,1.65,37.41-61.8,59.16-69.45,93,26.29-25.61,67.11-20.47,102.67-54.05-4.22,37.2-70.29,48.75-83.11,80.94,30-21.18,69.48-9.72,109.84-37.33-10,36.09-77,37.17-94.76,66.95,32.9-16.24,70.14,1.27,114.33-19.69-15.5,34.08-81.91,24.66-104.06,51.3,35-10.89,69.07,12.23,116-1.56-20.64,31.25-84.76,11.54-110.81,34.39,36.29-5.3,66.29,22.85,114.79,16.57-25.28,27.62-85.53-1.87-114.82,16.63,36.67.47,61.91,33,110.79,34.37-29.28,23.34-84.16-15.23-116-1.54,36.16,6.22,56,42.26,104.07,51.29C1030,617.16,981.83,570.49,948.25,579,983,590.81,997,629.53,1043,646c-35,13.15-75.34-40.49-109.85-37.31,32.47,17.08,40.2,57.5,83.13,80.92-36.68,7.5-68.09-51.78-102.67-54,29.41,21.93,30.71,63.07,69.45,92.93-37.41,1.66-59.15-61.8-93-69.43,25.61,26.27,20.47,67.1,54,102.65-37.19-4.21-48.75-70.29-80.94-83.12,21.18,30,9.72,69.49,37.33,109.85-36.09-10-37.17-77.05-66.94-94.75,16.23,32.9-1.29,70.13,19.68,114.32C819.17,792.51,828.6,726.1,802,704c10.88,35-12.24,69.08,1.55,116C772.27,799.32,792,735.2,769.12,709.16c5.31,36.28-22.86,66.29-16.57,114.79-27.63-25.27,1.87-85.52-16.62-114.82-.49,36.68-33,61.91-34.38,110.79-23.34-29.27,15.22-84.16,1.53-116-6.21,36.17-42.26,56-51.27,104.07-18.47-32.57,28.21-80.76,19.67-114.34-11.79,34.75-50.52,48.7-66.93,94.77C591.4,753.36,645,713.06,641.86,678.56c-17.07,32.47-57.49,40.2-80.92,83.13-7.5-36.69,51.78-68.09,54-102.67C593,688.42,551.86,689.73,522,728.47c-1.66-37.4,61.8-59.15,69.43-93-26.28,25.61-67.1,20.47-102.65,54,4.21-37.2,70.29-48.75,83.12-80.94-30,21.18-69.49,9.72-109.85,37.33,10-36.09,77.05-37.16,94.76-66.94-32.91,16.23-70.14-1.28-114.33,19.69,15.5-34.09,81.9-24.66,104.06-51.31-35,10.89-69.09-12.23-116,1.56,20.63-31.24,84.75-11.54,110.79-34.39-36.27,5.31-66.28-22.85-114.78-16.57,25.27-27.62,85.52,1.87,114.83-16.63-36.69-.47-61.93-33-110.8-34.37,29.28-23.33,84.16,15.23,116,1.54-36.16-6.22-56-42.26-104.07-51.28,32.57-18.47,80.76,28.2,114.34,19.67-34.74-11.79-48.7-50.5-94.76-66.93,35-13.14,75.35,40.49,109.85,37.31-32.47-17.07-40.19-57.49-83.13-80.92,36.68-7.5,68.09,51.77,102.67,54-29.41-21.95-30.71-63.07-69.44-92.94,37.39-1.66,59.15,61.8,93,69.44-25.61-26.28-20.47-67.11-54-102.66,37.2,4.22,48.75,70.29,80.94,83.12-21.18-30-9.72-69.49-37.33-109.85,36.09,10,37.15,77,66.94,94.76-16.23-32.9,1.28-70.14-19.68-114.33,34.08,15.5,24.65,81.91,51.29,104.06-10.89-35,12.23-69.08-1.54-116,31.22,20.63,11.53,84.75,34.38,110.81-5.31-36.29,22.84-66.29,16.56-114.8C780.18,197.22,750.69,257.47,769.18,286.78Z"/><path class="cls-3" d="M752.61,670.2A172.26,172.26,0,1,0,580.35,497.94h0A172.24,172.24,0,0,0,752.6,670.2h0"/><path class="cls-4" d="M752.55,347.72a149.68,149.68,0,0,1,111,48.91c-43.11,4.34-79.74,14.5-110.94,30-31.21-15.51-67.82-25.67-110.94-30a149.67,149.67,0,0,1,110.88-48.91"/><path class="cls-4" d="M741.2,432.76c-3.45,1.95-6.84,3.94-10.15,6-28-14.88-61.54-24.46-101.35-27.29,1.8-2.55,3.72-5.07,5.68-7.52,41.39,3.65,76.33,13.59,105.83,28.79"/><path class="cls-4" d="M764,432.76c3.46,1.95,6.84,3.94,10.15,6,28-14.88,61.54-24.46,101.36-27.29-1.81-2.55-3.73-5.07-5.69-7.52-41.38,3.65-76.33,13.59-105.83,28.79"/><path class="cls-4" d="M624.63,419.2c-1.6,2.59-3.11,5.21-4.56,7.9,37.1.87,68.22,9.41,93.76,23.52,2.67-2,5.4-4,8.17-5.87-26.7-14.54-59-23.65-97.37-25.55"/><path class="cls-4" d="M622.7,573.47A150.73,150.73,0,0,1,616,435.19c35.88-.26,65.94,7.59,90.43,21.21-36.31,29.72-63.15,69.33-83.74,117.07"/><path class="cls-4" d="M698.55,638.12a149,149,0,0,1-19.51-9.2c3.57-56.42,22-110.2,58.82-149.22,2.71,2.64,5.37,5.34,7.88,8.16-34.25,40-49.07,95-47.19,150.26"/><path class="cls-4" d="M880.55,419.2c1.59,2.59,3.1,5.21,4.55,7.9-37.1.87-68.23,9.41-93.75,23.52-2.67-2-5.41-4-8.18-5.87,26.71-14.54,59-23.65,97.38-25.55"/><path class="cls-4" d="M882.49,573.47a150.7,150.7,0,0,0,6.68-138.28c-35.87-.26-65.92,7.59-90.42,21.21,36.32,29.72,63.15,69.33,83.74,117.07"/><path class="cls-4" d="M752.6,496.2c30.84,39.94,42.4,94.41,36.51,147.49a151,151,0,0,1-73,0c-5.91-53.08,5.64-107.55,36.5-147.49"/><path class="cls-4" d="M806.7,638.12a147,147,0,0,0,19.5-9.2c-3.56-56.42-22-110.2-58.82-149.22-2.71,2.64-5.36,5.34-7.87,8.16,34.24,40,49.07,95,47.19,150.26"/><path class="cls-4" d="M728.83,471.68c-3.22-2.64-6.83-5.4-10.31-7.79-38.12,33.77-63.2,79.62-79.09,132.85a150.86,150.86,0,0,0,19.33,18.49c9.84-56,31.87-106.64,70.07-143.55"/><path class="cls-4" d="M776.38,471.68c3.21-2.64,6.82-5.4,10.3-7.79,38.12,33.77,63.21,79.62,79.09,132.85a151.54,151.54,0,0,1-19.33,18.49c-9.84-56-31.88-106.64-70.07-143.55"/><path class="cls-4" d="M752.6,439.1c1.86,1.12,8.4,5.21,10,6.3-2.54,1.58-8.42,5.53-10,6.65-1.61-1.12-7.5-5.07-10-6.65,1.64-1.09,8.15-5.18,10-6.3"/><path class="cls-4" d="M733.6,451.65c-2.55,1.91-6.46,4.88-7.93,6.15,3.69,2.42,8.63,6.17,10.21,7.41,1.91-1.66,5.72-5,7.86-6.57-2.6-1.89-8.16-5.88-10.14-7"/><path class="cls-4" d="M771.6,451.65c2.54,1.91,6.46,4.88,7.94,6.15-3.69,2.42-8.65,6.17-10.22,7.41-1.9-1.66-5.71-5-7.86-6.57,2.6-1.89,8.16-5.88,10.14-7"/><path class="cls-4" d="M752.6,465.67c1.63,1.42,6.52,5.71,7.8,7-2.72,2.39-5.33,4.92-7.8,7.57a107.61,107.61,0,0,0-7.83-7.57c1.29-1.32,6.17-5.61,7.83-7"/></g>

<text x="50" y="50" fill="gold" font-family="Verdana" font-size="60"> 吉尔吉斯斯坦</text>


</svg>