<svg id="Layer_1" data-name="Layer 1" xmlns="http://www.w3.org/2000/svg" xmlns:xlink="http://www.w3.org/1999/xlink" viewBox="0 0 1500 1000"><defs><style>.cls-1{fill:none;}.cls-2{clip-path:url(#clip-path);}.cls-3{clip-path:url(#clip-path-2);}.cls-4{fill:#007a3d;}.cls-5{fill:#cd1126;}.cls-6{fill:#fff;}</style><clipPath id="clip-path"><polygon class="cls-1" points="2671 0 2171 0 1671 0 1671 1000 2171 1000 2671 1000 3171 1000 3171 0 2671 0"/></clipPath><clipPath id="clip-path-2"><rect class="cls-1" width="1500" height="1000"/></clipPath></defs><title>Flag-ofA-kuwait</title><g class="cls-2"><polygon points="1671.68 0 1000.61 0 1000.61 999.08 1671.68 999.08 1671.68 1000 2065.32 666.55 2065.32 333.45 1671.68 0"/></g><g class="cls-3"><polygon class="cls-4" points="0.68 0 394.14 331.55 1500 331.55 1500 0 0.68 0"/><polygon class="cls-5" points="393.63 665.63 0 999.08 1500 999.08 1500 665.63 393.63 665.63"/><polygon points="0.68 0 0.68 1000 394.32 666.55 394.32 333.45 0.68 0"/><rect class="cls-6" x="392.35" y="331.47" width="1107.65" height="334.27"/></g>
<text x="50" y="50" fill="gold" font-family="Verdana" font-size="60"> 科威特 </text>
</svg>